<mxfile host="Electron" agent="Mozilla/5.0 (X11; Linux x86_64) AppleWebKit/537.36 (KHTML, like Gecko) draw.io/24.7.17 Chrome/128.0.6613.36 Electron/32.0.1 Safari/537.36" version="24.7.17" pages="3">
  <diagram id="liAS8BJx77Tu2Wudr9PA" name="uml-diagram-data">
    <mxGraphModel dx="2049" dy="1203" grid="1" gridSize="10" guides="1" tooltips="1" connect="1" arrows="1" fold="1" page="1" pageScale="1" pageWidth="1169" pageHeight="827" math="0" shadow="0">
      <root>
        <mxCell id="0" />
        <mxCell id="1" parent="0" />
        <mxCell id="4N_46-_X6e6o6Iuuag_l-1" value="Person" style="swimlane;fontStyle=0;childLayout=stackLayout;horizontal=1;startSize=25;fillColor=#e1d5e7;horizontalStack=0;resizeParent=1;resizeParentMax=0;resizeLast=0;collapsible=1;marginBottom=0;whiteSpace=wrap;html=1;strokeWidth=2;strokeColor=#9673a6;dashed=1;" vertex="1" parent="1">
          <mxGeometry x="80" y="666" width="150" height="129" as="geometry" />
        </mxCell>
        <mxCell id="4N_46-_X6e6o6Iuuag_l-2" value="person_id: int&amp;nbsp; &amp;lt;pk&amp;gt;" style="text;strokeColor=none;fillColor=#FFCCCC;align=left;verticalAlign=top;spacingLeft=4;spacingRight=4;overflow=hidden;rotatable=0;points=[[0,0.5],[1,0.5]];portConstraint=eastwest;whiteSpace=wrap;html=1;strokeWidth=2;labelBackgroundColor=none;gradientColor=none;labelBorderColor=none;" vertex="1" parent="4N_46-_X6e6o6Iuuag_l-1">
          <mxGeometry y="25" width="150" height="26" as="geometry" />
        </mxCell>
        <mxCell id="4N_46-_X6e6o6Iuuag_l-3" value="first_n&lt;span style=&quot;background-color: initial;&quot;&gt;ame: string&lt;/span&gt;&lt;div&gt;&lt;div&gt;&lt;br&gt;&lt;/div&gt;&lt;/div&gt;" style="text;strokeColor=none;fillColor=#FFE6CC;align=left;verticalAlign=top;spacingLeft=4;spacingRight=4;overflow=hidden;rotatable=0;points=[[0,0.5],[1,0.5]];portConstraint=eastwest;whiteSpace=wrap;html=1;" vertex="1" parent="4N_46-_X6e6o6Iuuag_l-1">
          <mxGeometry y="51" width="150" height="26" as="geometry" />
        </mxCell>
        <mxCell id="4N_46-_X6e6o6Iuuag_l-4" value="last_name: string" style="text;strokeColor=none;fillColor=#FFFFCC;align=left;verticalAlign=top;spacingLeft=4;spacingRight=4;overflow=hidden;rotatable=0;points=[[0,0.5],[1,0.5]];portConstraint=eastwest;whiteSpace=wrap;html=1;" vertex="1" parent="4N_46-_X6e6o6Iuuag_l-1">
          <mxGeometry y="77" width="150" height="26" as="geometry" />
        </mxCell>
        <mxCell id="4N_46-_X6e6o6Iuuag_l-5" value="mail: string&lt;div&gt;&lt;br&gt;&lt;/div&gt;" style="text;strokeColor=none;fillColor=#E6FFCC;align=left;verticalAlign=top;spacingLeft=4;spacingRight=4;overflow=hidden;rotatable=0;points=[[0,0.5],[1,0.5]];portConstraint=eastwest;whiteSpace=wrap;html=1;" vertex="1" parent="4N_46-_X6e6o6Iuuag_l-1">
          <mxGeometry y="103" width="150" height="26" as="geometry" />
        </mxCell>
        <mxCell id="4N_46-_X6e6o6Iuuag_l-6" value="Customer&lt;div&gt;(&lt;i&gt;customer.csv&lt;/i&gt;)&lt;/div&gt;" style="swimlane;fontStyle=0;childLayout=stackLayout;horizontal=1;startSize=40;fillColor=#dae8fc;horizontalStack=0;resizeParent=1;resizeParentMax=0;resizeLast=0;collapsible=1;marginBottom=0;whiteSpace=wrap;html=1;strokeWidth=2;strokeColor=#6c8ebf;" vertex="1" parent="1">
          <mxGeometry x="215" y="73" width="160" height="144" as="geometry" />
        </mxCell>
        <mxCell id="4N_46-_X6e6o6Iuuag_l-7" value="customer_id: int&amp;nbsp; &amp;lt;pk&amp;gt;&lt;div&gt;&lt;br&gt;&lt;/div&gt;" style="text;strokeColor=none;fillColor=#FFCCCC;align=left;verticalAlign=top;spacingLeft=4;spacingRight=4;overflow=hidden;rotatable=0;points=[[0,0.5],[1,0.5]];portConstraint=eastwest;whiteSpace=wrap;html=1;strokeWidth=2;labelBackgroundColor=none;" vertex="1" parent="4N_46-_X6e6o6Iuuag_l-6">
          <mxGeometry y="40" width="160" height="26" as="geometry" />
        </mxCell>
        <mxCell id="4N_46-_X6e6o6Iuuag_l-8" value="first_n&lt;span style=&quot;background-color: initial;&quot;&gt;ame: string&lt;/span&gt;&lt;div&gt;&lt;div&gt;&lt;br&gt;&lt;/div&gt;&lt;/div&gt;" style="text;strokeColor=none;fillColor=#FFE6CC;align=left;verticalAlign=top;spacingLeft=4;spacingRight=4;overflow=hidden;rotatable=0;points=[[0,0.5],[1,0.5]];portConstraint=eastwest;whiteSpace=wrap;html=1;" vertex="1" parent="4N_46-_X6e6o6Iuuag_l-6">
          <mxGeometry y="66" width="160" height="26" as="geometry" />
        </mxCell>
        <mxCell id="4N_46-_X6e6o6Iuuag_l-9" value="last_name: string" style="text;strokeColor=none;fillColor=#FFFFCC;align=left;verticalAlign=top;spacingLeft=4;spacingRight=4;overflow=hidden;rotatable=0;points=[[0,0.5],[1,0.5]];portConstraint=eastwest;whiteSpace=wrap;html=1;" vertex="1" parent="4N_46-_X6e6o6Iuuag_l-6">
          <mxGeometry y="92" width="160" height="26" as="geometry" />
        </mxCell>
        <mxCell id="4N_46-_X6e6o6Iuuag_l-10" value="mail: string&lt;div&gt;&lt;br&gt;&lt;/div&gt;" style="text;strokeColor=none;fillColor=#E6FFCC;align=left;verticalAlign=top;spacingLeft=4;spacingRight=4;overflow=hidden;rotatable=0;points=[[0,0.5],[1,0.5]];portConstraint=eastwest;whiteSpace=wrap;html=1;" vertex="1" parent="4N_46-_X6e6o6Iuuag_l-6">
          <mxGeometry y="118" width="160" height="26" as="geometry" />
        </mxCell>
        <mxCell id="4N_46-_X6e6o6Iuuag_l-11" value="Post&lt;div&gt;(post.csv)&lt;/div&gt;" style="swimlane;fontStyle=0;childLayout=stackLayout;horizontal=1;startSize=35;fillColor=#e1d5e7;horizontalStack=0;resizeParent=1;resizeParentMax=0;resizeLast=0;collapsible=1;marginBottom=0;whiteSpace=wrap;html=1;strokeWidth=2;strokeColor=#9673a6;" vertex="1" parent="1">
          <mxGeometry x="645" y="741" width="140" height="113" as="geometry" />
        </mxCell>
        <mxCell id="4N_46-_X6e6o6Iuuag_l-12" value="post_id: int&amp;nbsp; &amp;lt;pk&amp;gt;" style="text;strokeColor=none;fillColor=none;align=left;verticalAlign=top;spacingLeft=4;spacingRight=4;overflow=hidden;rotatable=0;points=[[0,0.5],[1,0.5]];portConstraint=eastwest;whiteSpace=wrap;html=1;strokeWidth=2;" vertex="1" parent="4N_46-_X6e6o6Iuuag_l-11">
          <mxGeometry y="35" width="140" height="26" as="geometry" />
        </mxCell>
        <mxCell id="4N_46-_X6e6o6Iuuag_l-13" value="&lt;div&gt;content: string&lt;/div&gt;" style="text;strokeColor=none;fillColor=none;align=left;verticalAlign=top;spacingLeft=4;spacingRight=4;overflow=hidden;rotatable=0;points=[[0,0.5],[1,0.5]];portConstraint=eastwest;whiteSpace=wrap;html=1;" vertex="1" parent="4N_46-_X6e6o6Iuuag_l-11">
          <mxGeometry y="61" width="140" height="26" as="geometry" />
        </mxCell>
        <mxCell id="4N_46-_X6e6o6Iuuag_l-14" value="lengh: int" style="text;strokeColor=none;fillColor=none;align=left;verticalAlign=top;spacingLeft=4;spacingRight=4;overflow=hidden;rotatable=0;points=[[0,0.5],[1,0.5]];portConstraint=eastwest;whiteSpace=wrap;html=1;" vertex="1" parent="4N_46-_X6e6o6Iuuag_l-11">
          <mxGeometry y="87" width="140" height="26" as="geometry" />
        </mxCell>
        <mxCell id="4N_46-_X6e6o6Iuuag_l-15" value="Order&lt;div&gt;(&lt;i&gt;order.json&lt;/i&gt;)&lt;/div&gt;" style="swimlane;fontStyle=0;childLayout=stackLayout;horizontal=1;startSize=40;fillColor=#d5e8d4;horizontalStack=0;resizeParent=1;resizeParentMax=0;resizeLast=0;collapsible=1;marginBottom=0;whiteSpace=wrap;html=1;strokeWidth=2;strokeColor=#82b366;" vertex="1" parent="1">
          <mxGeometry x="483" y="291" width="170" height="118" as="geometry" />
        </mxCell>
        <mxCell id="4N_46-_X6e6o6Iuuag_l-16" value="order_id: int&amp;nbsp; &amp;lt;pk&amp;gt;" style="text;strokeColor=none;fillColor=#CCFFCC;align=left;verticalAlign=top;spacingLeft=4;spacingRight=4;overflow=hidden;rotatable=0;points=[[0,0.5],[1,0.5]];portConstraint=eastwest;whiteSpace=wrap;html=1;strokeWidth=2;" vertex="1" parent="4N_46-_X6e6o6Iuuag_l-15">
          <mxGeometry y="40" width="170" height="26" as="geometry" />
        </mxCell>
        <mxCell id="4N_46-_X6e6o6Iuuag_l-17" value="&lt;div&gt;customer_id: int&amp;nbsp;&lt;b&gt;&amp;nbsp;&lt;/b&gt;&amp;lt;fk&amp;gt;&lt;/div&gt;" style="text;strokeColor=none;fillColor=#FFCCCC;align=left;verticalAlign=top;spacingLeft=4;spacingRight=4;overflow=hidden;rotatable=0;points=[[0,0.5],[1,0.5]];portConstraint=eastwest;whiteSpace=wrap;html=1;" vertex="1" parent="4N_46-_X6e6o6Iuuag_l-15">
          <mxGeometry y="66" width="170" height="26" as="geometry" />
        </mxCell>
        <mxCell id="4N_46-_X6e6o6Iuuag_l-18" value="total_price: float" style="text;strokeColor=none;fillColor=#CCFFE6;align=left;verticalAlign=top;spacingLeft=4;spacingRight=4;overflow=hidden;rotatable=0;points=[[0,0.5],[1,0.5]];portConstraint=eastwest;whiteSpace=wrap;html=1;" vertex="1" parent="4N_46-_X6e6o6Iuuag_l-15">
          <mxGeometry y="92" width="170" height="26" as="geometry" />
        </mxCell>
        <mxCell id="4N_46-_X6e6o6Iuuag_l-19" value="order_line" style="swimlane;fontStyle=0;childLayout=stackLayout;horizontal=1;startSize=26;fillColor=#d5e8d4;horizontalStack=0;resizeParent=1;resizeParentMax=0;resizeLast=0;collapsible=1;marginBottom=0;whiteSpace=wrap;html=1;strokeWidth=2;strokeColor=#82b366;dashed=1;dashPattern=1 2;" vertex="1" parent="1">
          <mxGeometry x="775" y="291" width="170" height="130" as="geometry" />
        </mxCell>
        <mxCell id="4N_46-_X6e6o6Iuuag_l-20" value="product_id: int" style="text;strokeColor=none;fillColor=#CCCCFF;align=left;verticalAlign=top;spacingLeft=4;spacingRight=4;overflow=hidden;rotatable=0;points=[[0,0.5],[1,0.5]];portConstraint=eastwest;whiteSpace=wrap;html=1;strokeWidth=2;" vertex="1" parent="4N_46-_X6e6o6Iuuag_l-19">
          <mxGeometry y="26" width="170" height="26" as="geometry" />
        </mxCell>
        <mxCell id="4N_46-_X6e6o6Iuuag_l-21" value="&lt;div&gt;asin: string&lt;/div&gt;" style="text;strokeColor=none;fillColor=#E5CCFF;align=left;verticalAlign=top;spacingLeft=4;spacingRight=4;overflow=hidden;rotatable=0;points=[[0,0.5],[1,0.5]];portConstraint=eastwest;whiteSpace=wrap;html=1;" vertex="1" parent="4N_46-_X6e6o6Iuuag_l-19">
          <mxGeometry y="52" width="170" height="26" as="geometry" />
        </mxCell>
        <mxCell id="4N_46-_X6e6o6Iuuag_l-22" value="&lt;div&gt;product_title: string&lt;/div&gt;" style="text;strokeColor=none;fillColor=none;align=left;verticalAlign=top;spacingLeft=4;spacingRight=4;overflow=hidden;rotatable=0;points=[[0,0.5],[1,0.5]];portConstraint=eastwest;whiteSpace=wrap;html=1;" vertex="1" parent="4N_46-_X6e6o6Iuuag_l-19">
          <mxGeometry y="78" width="170" height="26" as="geometry" />
        </mxCell>
        <mxCell id="4N_46-_X6e6o6Iuuag_l-23" value="price: float" style="text;strokeColor=none;fillColor=none;align=left;verticalAlign=top;spacingLeft=4;spacingRight=4;overflow=hidden;rotatable=0;points=[[0,0.5],[1,0.5]];portConstraint=eastwest;whiteSpace=wrap;html=1;" vertex="1" parent="4N_46-_X6e6o6Iuuag_l-19">
          <mxGeometry y="104" width="170" height="26" as="geometry" />
        </mxCell>
        <mxCell id="4N_46-_X6e6o6Iuuag_l-24" value="" style="endArrow=diamondThin;endFill=1;endSize=24;html=1;rounded=0;strokeWidth=2;entryX=0.994;entryY=0.1;entryDx=0;entryDy=0;entryPerimeter=0;exitX=-0.006;exitY=0.092;exitDx=0;exitDy=0;exitPerimeter=0;" edge="1" parent="1" source="4N_46-_X6e6o6Iuuag_l-19" target="4N_46-_X6e6o6Iuuag_l-15">
          <mxGeometry width="160" relative="1" as="geometry">
            <mxPoint x="745" y="279" as="sourcePoint" />
            <mxPoint x="675" y="289" as="targetPoint" />
          </mxGeometry>
        </mxCell>
        <mxCell id="4N_46-_X6e6o6Iuuag_l-25" value="Invoice&lt;div&gt;(&lt;i&gt;invoice.csv&lt;/i&gt;)&lt;/div&gt;" style="swimlane;fontStyle=0;childLayout=stackLayout;horizontal=1;startSize=40;fillColor=#dae8fc;horizontalStack=0;resizeParent=1;resizeParentMax=0;resizeLast=0;collapsible=1;marginBottom=0;whiteSpace=wrap;html=1;strokeWidth=2;strokeColor=#6c8ebf;dashed=1;" vertex="1" parent="1">
          <mxGeometry x="495" y="72" width="150" height="144" as="geometry" />
        </mxCell>
        <mxCell id="4N_46-_X6e6o6Iuuag_l-26" value="order_id: int&amp;nbsp; &amp;lt;pk&amp;gt;" style="text;strokeColor=none;fillColor=#CCFFCC;align=left;verticalAlign=top;spacingLeft=4;spacingRight=4;overflow=hidden;rotatable=0;points=[[0,0.5],[1,0.5]];portConstraint=eastwest;whiteSpace=wrap;html=1;strokeWidth=2;" vertex="1" parent="4N_46-_X6e6o6Iuuag_l-25">
          <mxGeometry y="40" width="150" height="26" as="geometry" />
        </mxCell>
        <mxCell id="4N_46-_X6e6o6Iuuag_l-27" value="&lt;div&gt;customer_id: int&amp;nbsp;&amp;nbsp;&amp;lt;fk&amp;gt;&lt;/div&gt;" style="text;strokeColor=none;fillColor=#FFCCCC;align=left;verticalAlign=top;spacingLeft=4;spacingRight=4;overflow=hidden;rotatable=0;points=[[0,0.5],[1,0.5]];portConstraint=eastwest;whiteSpace=wrap;html=1;gradientColor=none;" vertex="1" parent="4N_46-_X6e6o6Iuuag_l-25">
          <mxGeometry y="66" width="150" height="26" as="geometry" />
        </mxCell>
        <mxCell id="4N_46-_X6e6o6Iuuag_l-28" value="total_price: float" style="text;strokeColor=none;fillColor=#CCFFE6;align=left;verticalAlign=top;spacingLeft=4;spacingRight=4;overflow=hidden;rotatable=0;points=[[0,0.5],[1,0.5]];portConstraint=eastwest;whiteSpace=wrap;html=1;" vertex="1" parent="4N_46-_X6e6o6Iuuag_l-25">
          <mxGeometry y="92" width="150" height="26" as="geometry" />
        </mxCell>
        <mxCell id="4N_46-_X6e6o6Iuuag_l-29" value="&lt;div&gt;number_of_items: int&lt;/div&gt;" style="text;strokeColor=none;fillColor=none;align=left;verticalAlign=top;spacingLeft=4;spacingRight=4;overflow=hidden;rotatable=0;points=[[0,0.5],[1,0.5]];portConstraint=eastwest;whiteSpace=wrap;html=1;" vertex="1" parent="4N_46-_X6e6o6Iuuag_l-25">
          <mxGeometry y="118" width="150" height="26" as="geometry" />
        </mxCell>
        <mxCell id="4N_46-_X6e6o6Iuuag_l-30" value="Vendor&lt;div&gt;(&lt;i&gt;vendor.csv&lt;/i&gt;)&lt;/div&gt;" style="swimlane;fontStyle=0;childLayout=stackLayout;horizontal=1;startSize=39;fillColor=#dae8fc;horizontalStack=0;resizeParent=1;resizeParentMax=0;resizeLast=0;collapsible=1;marginBottom=0;whiteSpace=wrap;html=1;strokeWidth=2;strokeColor=#6c8ebf;" vertex="1" parent="1">
          <mxGeometry x="775" y="72" width="140" height="117" as="geometry" />
        </mxCell>
        <mxCell id="4N_46-_X6e6o6Iuuag_l-31" value="vendor_id: int&amp;nbsp; &amp;lt;pk&amp;gt;" style="text;strokeColor=none;fillColor=#CCFFFF;align=left;verticalAlign=top;spacingLeft=4;spacingRight=4;overflow=hidden;rotatable=0;points=[[0,0.5],[1,0.5]];portConstraint=eastwest;whiteSpace=wrap;html=1;strokeWidth=2;" vertex="1" parent="4N_46-_X6e6o6Iuuag_l-30">
          <mxGeometry y="39" width="140" height="26" as="geometry" />
        </mxCell>
        <mxCell id="4N_46-_X6e6o6Iuuag_l-32" value="&lt;div&gt;&lt;div&gt;vendor: string&lt;/div&gt;&lt;/div&gt;" style="text;strokeColor=none;fillColor=#CCE5FF;align=left;verticalAlign=top;spacingLeft=4;spacingRight=4;overflow=hidden;rotatable=0;points=[[0,0.5],[1,0.5]];portConstraint=eastwest;whiteSpace=wrap;html=1;" vertex="1" parent="4N_46-_X6e6o6Iuuag_l-30">
          <mxGeometry y="65" width="140" height="26" as="geometry" />
        </mxCell>
        <mxCell id="4N_46-_X6e6o6Iuuag_l-33" value="country: int" style="text;strokeColor=none;fillColor=none;align=left;verticalAlign=top;spacingLeft=4;spacingRight=4;overflow=hidden;rotatable=0;points=[[0,0.5],[1,0.5]];portConstraint=eastwest;whiteSpace=wrap;html=1;" vertex="1" parent="4N_46-_X6e6o6Iuuag_l-30">
          <mxGeometry y="91" width="140" height="26" as="geometry" />
        </mxCell>
        <mxCell id="4N_46-_X6e6o6Iuuag_l-34" value="Tag&lt;div&gt;(&lt;i&gt;tag.csv&lt;/i&gt;)&lt;/div&gt;" style="swimlane;fontStyle=0;childLayout=stackLayout;horizontal=1;startSize=37;fillColor=#e1d5e7;horizontalStack=0;resizeParent=1;resizeParentMax=0;resizeLast=0;collapsible=1;marginBottom=0;whiteSpace=wrap;html=1;strokeWidth=2;strokeColor=#9673a6;" vertex="1" parent="1">
          <mxGeometry x="645" y="611" width="140" height="115" as="geometry" />
        </mxCell>
        <mxCell id="4N_46-_X6e6o6Iuuag_l-35" value="tag_id: int&amp;nbsp; &amp;lt;pk&amp;gt;" style="text;strokeColor=none;fillColor=none;align=left;verticalAlign=top;spacingLeft=4;spacingRight=4;overflow=hidden;rotatable=0;points=[[0,0.5],[1,0.5]];portConstraint=eastwest;whiteSpace=wrap;html=1;strokeWidth=2;" vertex="1" parent="4N_46-_X6e6o6Iuuag_l-34">
          <mxGeometry y="37" width="140" height="26" as="geometry" />
        </mxCell>
        <mxCell id="4N_46-_X6e6o6Iuuag_l-36" value="vendors: string[ ]" style="text;strokeColor=none;fillColor=#CCE5FF;align=left;verticalAlign=top;spacingLeft=4;spacingRight=4;overflow=hidden;rotatable=0;points=[[0,0.5],[1,0.5]];portConstraint=eastwest;whiteSpace=wrap;html=1;" vertex="1" parent="4N_46-_X6e6o6Iuuag_l-34">
          <mxGeometry y="63" width="140" height="26" as="geometry" />
        </mxCell>
        <mxCell id="4N_46-_X6e6o6Iuuag_l-37" value="&lt;div&gt;name: string&lt;/div&gt;" style="text;strokeColor=none;fillColor=none;align=left;verticalAlign=top;spacingLeft=4;spacingRight=4;overflow=hidden;rotatable=0;points=[[0,0.5],[1,0.5]];portConstraint=eastwest;whiteSpace=wrap;html=1;" vertex="1" parent="4N_46-_X6e6o6Iuuag_l-34">
          <mxGeometry y="89" width="140" height="26" as="geometry" />
        </mxCell>
        <mxCell id="4N_46-_X6e6o6Iuuag_l-38" value="HAS_INTEREST&lt;div&gt;(&lt;span style=&quot;background-color: initial;&quot;&gt;&lt;i&gt;HAS_INTEREST.csv&lt;/i&gt;)&lt;/span&gt;&lt;/div&gt;" style="swimlane;fontStyle=0;childLayout=stackLayout;horizontal=1;startSize=35;fillColor=#e1d5e7;horizontalStack=0;resizeParent=1;resizeParentMax=0;resizeLast=0;collapsible=1;marginBottom=0;whiteSpace=wrap;html=1;strokeWidth=2;strokeColor=#9673a6;" vertex="1" parent="1">
          <mxGeometry x="316" y="579" width="190" height="87" as="geometry" />
        </mxCell>
        <mxCell id="4N_46-_X6e6o6Iuuag_l-39" value="person_id: int&amp;nbsp; &amp;lt;fk&amp;gt;" style="text;strokeColor=none;fillColor=none;align=left;verticalAlign=top;spacingLeft=4;spacingRight=4;overflow=hidden;rotatable=0;points=[[0,0.5],[1,0.5]];portConstraint=eastwest;whiteSpace=wrap;html=1;strokeWidth=2;" vertex="1" parent="4N_46-_X6e6o6Iuuag_l-38">
          <mxGeometry y="35" width="190" height="26" as="geometry" />
        </mxCell>
        <mxCell id="4N_46-_X6e6o6Iuuag_l-40" value="&lt;div&gt;&lt;div&gt;tag_id: int&amp;nbsp; &amp;lt;fk&amp;gt;&lt;/div&gt;&lt;/div&gt;" style="text;strokeColor=none;fillColor=none;align=left;verticalAlign=top;spacingLeft=4;spacingRight=4;overflow=hidden;rotatable=0;points=[[0,0.5],[1,0.5]];portConstraint=eastwest;whiteSpace=wrap;html=1;" vertex="1" parent="4N_46-_X6e6o6Iuuag_l-38">
          <mxGeometry y="61" width="190" height="26" as="geometry" />
        </mxCell>
        <mxCell id="4N_46-_X6e6o6Iuuag_l-41" value="WROTE&lt;div&gt;(&lt;i&gt;WROTE.csv&lt;/i&gt;)&lt;/div&gt;" style="swimlane;fontStyle=0;childLayout=stackLayout;horizontal=1;startSize=39;fillColor=#e1d5e7;horizontalStack=0;resizeParent=1;resizeParentMax=0;resizeLast=0;collapsible=1;marginBottom=0;whiteSpace=wrap;html=1;strokeWidth=2;strokeColor=#9673a6;" vertex="1" parent="1">
          <mxGeometry x="316" y="709" width="190" height="91" as="geometry" />
        </mxCell>
        <mxCell id="4N_46-_X6e6o6Iuuag_l-42" value="person_id: int&amp;nbsp; &amp;lt;fk&amp;gt;" style="text;strokeColor=none;fillColor=none;align=left;verticalAlign=top;spacingLeft=4;spacingRight=4;overflow=hidden;rotatable=0;points=[[0,0.5],[1,0.5]];portConstraint=eastwest;whiteSpace=wrap;html=1;strokeWidth=2;" vertex="1" parent="4N_46-_X6e6o6Iuuag_l-41">
          <mxGeometry y="39" width="190" height="26" as="geometry" />
        </mxCell>
        <mxCell id="4N_46-_X6e6o6Iuuag_l-43" value="&lt;div&gt;&lt;div&gt;post_id: int&amp;nbsp; &amp;lt;fk&amp;gt;&lt;/div&gt;&lt;/div&gt;" style="text;strokeColor=none;fillColor=none;align=left;verticalAlign=top;spacingLeft=4;spacingRight=4;overflow=hidden;rotatable=0;points=[[0,0.5],[1,0.5]];portConstraint=eastwest;whiteSpace=wrap;html=1;" vertex="1" parent="4N_46-_X6e6o6Iuuag_l-41">
          <mxGeometry y="65" width="190" height="26" as="geometry" />
        </mxCell>
        <mxCell id="4N_46-_X6e6o6Iuuag_l-44" value="" style="endArrow=open;endFill=0;endSize=12;html=1;rounded=0;exitX=1;exitY=0.5;exitDx=0;exitDy=0;strokeWidth=2;entryX=0.994;entryY=0.192;entryDx=0;entryDy=0;entryPerimeter=0;" edge="1" parent="1" source="4N_46-_X6e6o6Iuuag_l-77" target="4N_46-_X6e6o6Iuuag_l-30">
          <mxGeometry width="160" relative="1" as="geometry">
            <mxPoint x="945" y="434" as="sourcePoint" />
            <mxPoint x="915" y="128" as="targetPoint" />
            <Array as="points">
              <mxPoint x="1005" y="478" />
              <mxPoint x="1005" y="94" />
            </Array>
          </mxGeometry>
        </mxCell>
        <mxCell id="4N_46-_X6e6o6Iuuag_l-45" value="" style="endArrow=none;html=1;rounded=0;exitX=0.5;exitY=0;exitDx=0;exitDy=0;entryX=0;entryY=0.5;entryDx=0;entryDy=0;strokeWidth=2;" edge="1" parent="1" source="4N_46-_X6e6o6Iuuag_l-1" target="4N_46-_X6e6o6Iuuag_l-39">
          <mxGeometry width="50" height="50" relative="1" as="geometry">
            <mxPoint x="152" y="662" as="sourcePoint" />
            <mxPoint x="284" y="624.5" as="targetPoint" />
            <Array as="points">
              <mxPoint x="155" y="627" />
            </Array>
          </mxGeometry>
        </mxCell>
        <mxCell id="4N_46-_X6e6o6Iuuag_l-46" value="" style="endArrow=open;html=1;rounded=0;exitX=1;exitY=0.5;exitDx=0;exitDy=0;entryX=-0.021;entryY=0.135;entryDx=0;entryDy=0;entryPerimeter=0;strokeWidth=2;endFill=0;endSize=12;" edge="1" parent="1" source="4N_46-_X6e6o6Iuuag_l-40" target="4N_46-_X6e6o6Iuuag_l-34">
          <mxGeometry width="50" height="50" relative="1" as="geometry">
            <mxPoint x="595" y="512" as="sourcePoint" />
            <mxPoint x="645" y="462" as="targetPoint" />
            <Array as="points">
              <mxPoint x="565" y="653" />
              <mxPoint x="565" y="627" />
            </Array>
          </mxGeometry>
        </mxCell>
        <mxCell id="4N_46-_X6e6o6Iuuag_l-47" value="" style="endArrow=none;html=1;rounded=0;strokeWidth=2;entryX=0;entryY=0.5;entryDx=0;entryDy=0;exitX=0.75;exitY=0;exitDx=0;exitDy=0;" edge="1" parent="1" source="4N_46-_X6e6o6Iuuag_l-1" target="4N_46-_X6e6o6Iuuag_l-42">
          <mxGeometry width="50" height="50" relative="1" as="geometry">
            <mxPoint x="175" y="647" as="sourcePoint" />
            <mxPoint x="265" y="722" as="targetPoint" />
            <Array as="points">
              <mxPoint x="192" y="637" />
              <mxPoint x="285" y="637" />
              <mxPoint x="285" y="761" />
            </Array>
          </mxGeometry>
        </mxCell>
        <mxCell id="4N_46-_X6e6o6Iuuag_l-48" value="" style="endArrow=open;html=1;rounded=0;entryX=0;entryY=0.115;entryDx=0;entryDy=0;entryPerimeter=0;strokeWidth=2;endFill=0;endSize=12;exitX=1;exitY=0.5;exitDx=0;exitDy=0;" edge="1" parent="1" source="4N_46-_X6e6o6Iuuag_l-43" target="4N_46-_X6e6o6Iuuag_l-11">
          <mxGeometry width="50" height="50" relative="1" as="geometry">
            <mxPoint x="495" y="702" as="sourcePoint" />
            <mxPoint x="672" y="726.5" as="targetPoint" />
            <Array as="points">
              <mxPoint x="535" y="787" />
              <mxPoint x="535" y="754" />
            </Array>
          </mxGeometry>
        </mxCell>
        <mxCell id="4N_46-_X6e6o6Iuuag_l-49" value="" style="endArrow=none;html=1;rounded=0;strokeWidth=2;endFill=0;endSize=12;entryX=0;entryY=0.5;entryDx=0;entryDy=0;startArrow=open;startFill=0;startSize=12;exitX=0.25;exitY=0;exitDx=0;exitDy=0;" edge="1" parent="1" source="4N_46-_X6e6o6Iuuag_l-1" target="4N_46-_X6e6o6Iuuag_l-17">
          <mxGeometry width="50" height="50" relative="1" as="geometry">
            <mxPoint x="118" y="628" as="sourcePoint" />
            <mxPoint x="445" y="378" as="targetPoint" />
            <Array as="points">
              <mxPoint x="118" y="370" />
            </Array>
          </mxGeometry>
        </mxCell>
        <mxCell id="4N_46-_X6e6o6Iuuag_l-50" value="" style="endArrow=none;html=1;rounded=0;exitX=-0.014;exitY=0.085;exitDx=0;exitDy=0;strokeWidth=2;endFill=0;endSize=12;exitPerimeter=0;entryX=0;entryY=0.5;entryDx=0;entryDy=0;startArrow=open;startFill=0;startSize=12;" edge="1" parent="1" source="4N_46-_X6e6o6Iuuag_l-6" target="4N_46-_X6e6o6Iuuag_l-17">
          <mxGeometry width="50" height="50" relative="1" as="geometry">
            <mxPoint x="130" y="633" as="sourcePoint" />
            <mxPoint x="425" y="428" as="targetPoint" />
            <Array as="points">
              <mxPoint x="185" y="85" />
              <mxPoint x="185" y="370" />
            </Array>
          </mxGeometry>
        </mxCell>
        <mxCell id="4N_46-_X6e6o6Iuuag_l-51" value="HAS_TAG&lt;div&gt;(&lt;i&gt;HAS_TAG.csv&lt;/i&gt;)&lt;/div&gt;" style="swimlane;fontStyle=0;childLayout=stackLayout;horizontal=1;startSize=35;fillColor=#e1d5e7;horizontalStack=0;resizeParent=1;resizeParentMax=0;resizeLast=0;collapsible=1;marginBottom=0;whiteSpace=wrap;html=1;strokeWidth=2;strokeColor=#9673a6;" vertex="1" parent="1">
          <mxGeometry x="885" y="704" width="160" height="87" as="geometry" />
        </mxCell>
        <mxCell id="4N_46-_X6e6o6Iuuag_l-52" value="post_id: int&amp;nbsp;&lt;span style=&quot;background-color: initial;&quot;&gt;&amp;nbsp;&lt;/span&gt;&lt;span style=&quot;background-color: initial;&quot;&gt;&amp;lt;fk&amp;gt;&lt;/span&gt;" style="text;strokeColor=none;fillColor=none;align=left;verticalAlign=top;spacingLeft=4;spacingRight=4;overflow=hidden;rotatable=0;points=[[0,0.5],[1,0.5]];portConstraint=eastwest;whiteSpace=wrap;html=1;strokeWidth=2;" vertex="1" parent="4N_46-_X6e6o6Iuuag_l-51">
          <mxGeometry y="35" width="160" height="26" as="geometry" />
        </mxCell>
        <mxCell id="4N_46-_X6e6o6Iuuag_l-53" value="&lt;div&gt;&lt;div&gt;tag_id: int&amp;nbsp; &amp;lt;fk&amp;gt;&lt;/div&gt;&lt;/div&gt;" style="text;strokeColor=none;fillColor=none;align=left;verticalAlign=top;spacingLeft=4;spacingRight=4;overflow=hidden;rotatable=0;points=[[0,0.5],[1,0.5]];portConstraint=eastwest;whiteSpace=wrap;html=1;" vertex="1" parent="4N_46-_X6e6o6Iuuag_l-51">
          <mxGeometry y="61" width="160" height="26" as="geometry" />
        </mxCell>
        <mxCell id="4N_46-_X6e6o6Iuuag_l-54" value="" style="endArrow=none;html=1;rounded=0;entryX=0;entryY=0.5;entryDx=0;entryDy=0;strokeWidth=2;" edge="1" parent="1" target="4N_46-_X6e6o6Iuuag_l-52">
          <mxGeometry width="50" height="50" relative="1" as="geometry">
            <mxPoint x="785" y="752" as="sourcePoint" />
            <mxPoint x="965" y="727" as="targetPoint" />
            <Array as="points">
              <mxPoint x="835" y="752" />
            </Array>
          </mxGeometry>
        </mxCell>
        <mxCell id="4N_46-_X6e6o6Iuuag_l-55" value="" style="endArrow=open;html=1;rounded=0;entryX=0.993;entryY=0.115;entryDx=0;entryDy=0;entryPerimeter=0;strokeWidth=2;endFill=0;endSize=12;jumpStyle=arc;exitX=1;exitY=0.5;exitDx=0;exitDy=0;" edge="1" parent="1" source="4N_46-_X6e6o6Iuuag_l-53" target="4N_46-_X6e6o6Iuuag_l-34">
          <mxGeometry width="50" height="50" relative="1" as="geometry">
            <mxPoint x="1075" y="777" as="sourcePoint" />
            <mxPoint x="1242" y="697" as="targetPoint" />
            <Array as="points">
              <mxPoint x="1085" y="778" />
              <mxPoint x="1085" y="624" />
            </Array>
          </mxGeometry>
        </mxCell>
        <mxCell id="4N_46-_X6e6o6Iuuag_l-56" value="&lt;b&gt;M&lt;/b&gt;" style="text;html=1;align=center;verticalAlign=middle;whiteSpace=wrap;rounded=0;" vertex="1" parent="1">
          <mxGeometry x="146" y="600" width="60" height="30" as="geometry" />
        </mxCell>
        <mxCell id="4N_46-_X6e6o6Iuuag_l-57" value="&lt;b&gt;1&lt;/b&gt;" style="text;html=1;align=center;verticalAlign=middle;whiteSpace=wrap;rounded=0;" vertex="1" parent="1">
          <mxGeometry x="76" y="601" width="60" height="30" as="geometry" />
        </mxCell>
        <mxCell id="4N_46-_X6e6o6Iuuag_l-58" value="&lt;b&gt;1&lt;/b&gt;" style="text;html=1;align=center;verticalAlign=middle;whiteSpace=wrap;rounded=0;" vertex="1" parent="1">
          <mxGeometry x="264" y="648" width="60" height="30" as="geometry" />
        </mxCell>
        <mxCell id="4N_46-_X6e6o6Iuuag_l-59" value="&lt;b&gt;N&lt;/b&gt;" style="text;html=1;align=center;verticalAlign=middle;whiteSpace=wrap;rounded=0;" vertex="1" parent="1">
          <mxGeometry x="575" y="600" width="60" height="30" as="geometry" />
        </mxCell>
        <mxCell id="4N_46-_X6e6o6Iuuag_l-60" value="&lt;b&gt;M&lt;/b&gt;" style="text;html=1;align=center;verticalAlign=middle;whiteSpace=wrap;rounded=0;" vertex="1" parent="1">
          <mxGeometry x="575" y="726" width="60" height="30" as="geometry" />
        </mxCell>
        <mxCell id="4N_46-_X6e6o6Iuuag_l-61" value="&lt;b&gt;M&lt;/b&gt;" style="text;html=1;align=center;verticalAlign=middle;whiteSpace=wrap;rounded=0;" vertex="1" parent="1">
          <mxGeometry x="785" y="726" width="60" height="30" as="geometry" />
        </mxCell>
        <mxCell id="4N_46-_X6e6o6Iuuag_l-62" value="&lt;b&gt;N&lt;/b&gt;" style="text;html=1;align=center;verticalAlign=middle;whiteSpace=wrap;rounded=0;" vertex="1" parent="1">
          <mxGeometry x="785" y="597" width="60" height="30" as="geometry" />
        </mxCell>
        <mxCell id="4N_46-_X6e6o6Iuuag_l-63" value="&lt;b&gt;M&lt;/b&gt;" style="text;html=1;align=center;verticalAlign=middle;whiteSpace=wrap;rounded=0;" vertex="1" parent="1">
          <mxGeometry x="423" y="341" width="60" height="30" as="geometry" />
        </mxCell>
        <mxCell id="4N_46-_X6e6o6Iuuag_l-64" value="&lt;b&gt;M&lt;/b&gt;" style="text;html=1;align=center;verticalAlign=middle;whiteSpace=wrap;rounded=0;" vertex="1" parent="1">
          <mxGeometry x="945" y="449" width="60" height="30" as="geometry" />
        </mxCell>
        <mxCell id="4N_46-_X6e6o6Iuuag_l-65" value="&lt;b&gt;1&lt;/b&gt;" style="text;html=1;align=center;verticalAlign=middle;whiteSpace=wrap;rounded=0;" vertex="1" parent="1">
          <mxGeometry x="930" y="94" width="60" height="30" as="geometry" />
        </mxCell>
        <mxCell id="4N_46-_X6e6o6Iuuag_l-66" value="" style="rounded=1;whiteSpace=wrap;html=1;opacity=50;fillColor=none;arcSize=4;strokeWidth=3;dashed=1;strokeColor=#9673a6;" vertex="1" parent="1">
          <mxGeometry x="49" y="563" width="1101" height="458" as="geometry" />
        </mxCell>
        <mxCell id="4N_46-_X6e6o6Iuuag_l-67" value="&lt;b&gt;&lt;font style=&quot;font-size: 16px;&quot;&gt;Neo4j&lt;/font&gt;&lt;/b&gt;" style="text;html=1;align=center;verticalAlign=middle;whiteSpace=wrap;rounded=0;" vertex="1" parent="1">
          <mxGeometry x="67" y="980" width="60" height="30" as="geometry" />
        </mxCell>
        <mxCell id="4N_46-_X6e6o6Iuuag_l-68" value="" style="rounded=1;whiteSpace=wrap;html=1;opacity=50;fillColor=none;arcSize=4;strokeWidth=3;dashed=1;strokeColor=#82b366;" vertex="1" parent="1">
          <mxGeometry x="50" y="271" width="1100" height="265" as="geometry" />
        </mxCell>
        <mxCell id="4N_46-_X6e6o6Iuuag_l-69" value="" style="rounded=1;whiteSpace=wrap;html=1;opacity=50;fillColor=none;arcSize=4;strokeWidth=3;dashed=1;strokeColor=#6c8ebf;" vertex="1" parent="1">
          <mxGeometry x="55" y="43" width="1095" height="200" as="geometry" />
        </mxCell>
        <mxCell id="4N_46-_X6e6o6Iuuag_l-70" value="&lt;b&gt;&lt;font style=&quot;font-size: 16px;&quot;&gt;MongoDB&lt;/font&gt;&lt;/b&gt;" style="text;html=1;align=center;verticalAlign=middle;whiteSpace=wrap;rounded=0;" vertex="1" parent="1">
          <mxGeometry x="151" y="503" width="60" height="30" as="geometry" />
        </mxCell>
        <mxCell id="4N_46-_X6e6o6Iuuag_l-71" value="&lt;b&gt;&lt;font style=&quot;font-size: 16px;&quot;&gt;MySQL/ Postgres&lt;/font&gt;&lt;/b&gt;" style="text;html=1;align=center;verticalAlign=middle;whiteSpace=wrap;rounded=0;" vertex="1" parent="1">
          <mxGeometry x="69" y="198" width="60" height="30" as="geometry" />
        </mxCell>
        <mxCell id="4N_46-_X6e6o6Iuuag_l-72" value="&lt;b&gt;1&lt;/b&gt;" style="text;html=1;align=center;verticalAlign=middle;whiteSpace=wrap;rounded=0;" vertex="1" parent="1">
          <mxGeometry x="145" y="75" width="60" height="30" as="geometry" />
        </mxCell>
        <mxCell id="4N_46-_X6e6o6Iuuag_l-73" value="&lt;b&gt;1&lt;/b&gt;" style="text;html=1;align=center;verticalAlign=middle;whiteSpace=wrap;rounded=0;" vertex="1" parent="1">
          <mxGeometry x="663" y="273" width="60" height="30" as="geometry" />
        </mxCell>
        <mxCell id="4N_46-_X6e6o6Iuuag_l-74" value="&lt;b&gt;M&lt;/b&gt;" style="text;html=1;align=center;verticalAlign=middle;whiteSpace=wrap;rounded=0;" vertex="1" parent="1">
          <mxGeometry x="716" y="273" width="60" height="30" as="geometry" />
        </mxCell>
        <mxCell id="4N_46-_X6e6o6Iuuag_l-75" value="" style="endArrow=none;endFill=0;endSize=12;html=1;rounded=0;exitX=0;exitY=0.5;exitDx=0;exitDy=0;strokeWidth=2;" edge="1" parent="1">
          <mxGeometry width="160" relative="1" as="geometry">
            <mxPoint x="495" y="152" as="sourcePoint" />
            <mxPoint x="415" y="369" as="targetPoint" />
            <Array as="points">
              <mxPoint x="415" y="152" />
            </Array>
          </mxGeometry>
        </mxCell>
        <mxCell id="4N_46-_X6e6o6Iuuag_l-76" value="&lt;b&gt;M&lt;/b&gt;" style="text;html=1;align=center;verticalAlign=middle;whiteSpace=wrap;rounded=0;" vertex="1" parent="1">
          <mxGeometry x="426" y="124" width="60" height="30" as="geometry" />
        </mxCell>
        <mxCell id="4N_46-_X6e6o6Iuuag_l-77" value="vendor" style="swimlane;fontStyle=0;childLayout=stackLayout;horizontal=1;startSize=26;fillColor=#d5e8d4;horizontalStack=0;resizeParent=1;resizeParentMax=0;resizeLast=0;collapsible=1;marginBottom=0;whiteSpace=wrap;html=1;strokeWidth=2;strokeColor=#82b366;dashed=1;dashPattern=1 2;" vertex="1" parent="1">
          <mxGeometry x="775" y="439" width="170" height="78" as="geometry" />
        </mxCell>
        <mxCell id="4N_46-_X6e6o6Iuuag_l-78" value="brand_id: int&amp;nbsp; &amp;lt;fk&amp;gt;" style="text;strokeColor=none;fillColor=#CCFFFF;align=left;verticalAlign=top;spacingLeft=4;spacingRight=4;overflow=hidden;rotatable=0;points=[[0,0.5],[1,0.5]];portConstraint=eastwest;whiteSpace=wrap;html=1;strokeWidth=2;" vertex="1" parent="4N_46-_X6e6o6Iuuag_l-77">
          <mxGeometry y="26" width="170" height="26" as="geometry" />
        </mxCell>
        <mxCell id="4N_46-_X6e6o6Iuuag_l-79" value="&lt;div&gt;brand: string&lt;/div&gt;" style="text;strokeColor=none;fillColor=#CCE5FF;align=left;verticalAlign=top;spacingLeft=4;spacingRight=4;overflow=hidden;rotatable=0;points=[[0,0.5],[1,0.5]];portConstraint=eastwest;whiteSpace=wrap;html=1;" vertex="1" parent="4N_46-_X6e6o6Iuuag_l-77">
          <mxGeometry y="52" width="170" height="26" as="geometry" />
        </mxCell>
        <mxCell id="4N_46-_X6e6o6Iuuag_l-80" value="" style="endArrow=diamondThin;endFill=1;endSize=24;html=1;rounded=0;strokeWidth=2;entryX=0.018;entryY=0.038;entryDx=0;entryDy=0;entryPerimeter=0;exitX=0;exitY=0.25;exitDx=0;exitDy=0;" edge="1" parent="1" source="4N_46-_X6e6o6Iuuag_l-77" target="4N_46-_X6e6o6Iuuag_l-20">
          <mxGeometry width="160" relative="1" as="geometry">
            <mxPoint x="742" y="496" as="sourcePoint" />
            <mxPoint x="620" y="496" as="targetPoint" />
            <Array as="points">
              <mxPoint x="725" y="458" />
              <mxPoint x="725" y="318" />
            </Array>
          </mxGeometry>
        </mxCell>
        <mxCell id="4N_46-_X6e6o6Iuuag_l-81" value="&lt;b&gt;1&lt;/b&gt;" style="text;html=1;align=center;verticalAlign=middle;whiteSpace=wrap;rounded=0;" vertex="1" parent="1">
          <mxGeometry x="716" y="321" width="60" height="30" as="geometry" />
        </mxCell>
        <mxCell id="4N_46-_X6e6o6Iuuag_l-82" value="&lt;b&gt;1&lt;/b&gt;" style="text;html=1;align=center;verticalAlign=middle;whiteSpace=wrap;rounded=0;" vertex="1" parent="1">
          <mxGeometry x="716" y="425" width="60" height="30" as="geometry" />
        </mxCell>
        <mxCell id="4N_46-_X6e6o6Iuuag_l-83" value="&lt;div&gt;Feedback&lt;/div&gt;&lt;div&gt;(&lt;i&gt;feedback.csv&lt;/i&gt;)&lt;/div&gt;" style="swimlane;fontStyle=0;childLayout=stackLayout;horizontal=1;startSize=35;fillColor=#e1d5e7;horizontalStack=0;resizeParent=1;resizeParentMax=0;resizeLast=0;collapsible=1;marginBottom=0;whiteSpace=wrap;html=1;strokeWidth=2;strokeColor=#9673a6;" vertex="1" parent="1">
          <mxGeometry x="885" y="812" width="160" height="191" as="geometry" />
        </mxCell>
        <mxCell id="4N_46-_X6e6o6Iuuag_l-84" value="feedback_id: int&amp;nbsp; &amp;lt;pk&amp;gt;" style="text;strokeColor=none;fillColor=none;align=left;verticalAlign=top;spacingLeft=4;spacingRight=4;overflow=hidden;rotatable=0;points=[[0,0.5],[1,0.5]];portConstraint=eastwest;whiteSpace=wrap;html=1;strokeWidth=2;" vertex="1" parent="4N_46-_X6e6o6Iuuag_l-83">
          <mxGeometry y="35" width="160" height="26" as="geometry" />
        </mxCell>
        <mxCell id="4N_46-_X6e6o6Iuuag_l-85" value="&lt;div&gt;product_id: int&lt;/div&gt;" style="text;strokeColor=none;fillColor=#CCCCFF;align=left;verticalAlign=top;spacingLeft=4;spacingRight=4;overflow=hidden;rotatable=0;points=[[0,0.5],[1,0.5]];portConstraint=eastwest;whiteSpace=wrap;html=1;" vertex="1" parent="4N_46-_X6e6o6Iuuag_l-83">
          <mxGeometry y="61" width="160" height="26" as="geometry" />
        </mxCell>
        <mxCell id="4N_46-_X6e6o6Iuuag_l-86" value="asin: string" style="text;strokeColor=none;fillColor=#E5CCFF;align=left;verticalAlign=top;spacingLeft=4;spacingRight=4;overflow=hidden;rotatable=0;points=[[0,0.5],[1,0.5]];portConstraint=eastwest;whiteSpace=wrap;html=1;" vertex="1" parent="4N_46-_X6e6o6Iuuag_l-83">
          <mxGeometry y="87" width="160" height="26" as="geometry" />
        </mxCell>
        <mxCell id="4N_46-_X6e6o6Iuuag_l-87" value="brand_id: int&amp;nbsp; &amp;lt;fk&amp;gt;" style="text;strokeColor=none;fillColor=#CCFFFF;align=left;verticalAlign=top;spacingLeft=4;spacingRight=4;overflow=hidden;rotatable=0;points=[[0,0.5],[1,0.5]];portConstraint=eastwest;whiteSpace=wrap;html=1;" vertex="1" parent="4N_46-_X6e6o6Iuuag_l-83">
          <mxGeometry y="113" width="160" height="26" as="geometry" />
        </mxCell>
        <mxCell id="4N_46-_X6e6o6Iuuag_l-88" value="&lt;div&gt;brand: string&lt;/div&gt;" style="text;strokeColor=none;fillColor=#CCE5FF;align=left;verticalAlign=top;spacingLeft=4;spacingRight=4;overflow=hidden;rotatable=0;points=[[0,0.5],[1,0.5]];portConstraint=eastwest;whiteSpace=wrap;html=1;" vertex="1" parent="4N_46-_X6e6o6Iuuag_l-83">
          <mxGeometry y="139" width="160" height="26" as="geometry" />
        </mxCell>
        <mxCell id="4N_46-_X6e6o6Iuuag_l-89" value="feedback: string" style="text;strokeColor=none;fillColor=none;align=left;verticalAlign=top;spacingLeft=4;spacingRight=4;overflow=hidden;rotatable=0;points=[[0,0.5],[1,0.5]];portConstraint=eastwest;whiteSpace=wrap;html=1;" vertex="1" parent="4N_46-_X6e6o6Iuuag_l-83">
          <mxGeometry y="165" width="160" height="26" as="geometry" />
        </mxCell>
        <mxCell id="4N_46-_X6e6o6Iuuag_l-90" value="&lt;div&gt;HAS_CREATED&lt;/div&gt;&lt;div&gt;(&lt;i&gt;HAS_CREATED.csv&lt;/i&gt;)&lt;/div&gt;" style="swimlane;fontStyle=0;childLayout=stackLayout;horizontal=1;startSize=39;fillColor=#e1d5e7;horizontalStack=0;resizeParent=1;resizeParentMax=0;resizeLast=0;collapsible=1;marginBottom=0;whiteSpace=wrap;html=1;strokeWidth=2;strokeColor=#9673a6;" vertex="1" parent="1">
          <mxGeometry x="316" y="831" width="190" height="91" as="geometry" />
        </mxCell>
        <mxCell id="4N_46-_X6e6o6Iuuag_l-91" value="person_id: int&amp;nbsp; &amp;lt;fk&amp;gt;" style="text;strokeColor=none;fillColor=none;align=left;verticalAlign=top;spacingLeft=4;spacingRight=4;overflow=hidden;rotatable=0;points=[[0,0.5],[1,0.5]];portConstraint=eastwest;whiteSpace=wrap;html=1;strokeWidth=2;" vertex="1" parent="4N_46-_X6e6o6Iuuag_l-90">
          <mxGeometry y="39" width="190" height="26" as="geometry" />
        </mxCell>
        <mxCell id="4N_46-_X6e6o6Iuuag_l-92" value="&lt;div&gt;&lt;div&gt;feedback_id: int&amp;nbsp; &amp;lt;fk&amp;gt;&lt;/div&gt;&lt;/div&gt;" style="text;strokeColor=none;fillColor=none;align=left;verticalAlign=top;spacingLeft=4;spacingRight=4;overflow=hidden;rotatable=0;points=[[0,0.5],[1,0.5]];portConstraint=eastwest;whiteSpace=wrap;html=1;" vertex="1" parent="4N_46-_X6e6o6Iuuag_l-90">
          <mxGeometry y="65" width="190" height="26" as="geometry" />
        </mxCell>
        <mxCell id="4N_46-_X6e6o6Iuuag_l-93" value="" style="endArrow=none;html=1;rounded=0;strokeWidth=2;entryX=0;entryY=0.5;entryDx=0;entryDy=0;exitX=0.9;exitY=0.008;exitDx=0;exitDy=0;exitPerimeter=0;" edge="1" parent="1" source="4N_46-_X6e6o6Iuuag_l-1" target="4N_46-_X6e6o6Iuuag_l-91">
          <mxGeometry width="50" height="50" relative="1" as="geometry">
            <mxPoint x="176" y="796" as="sourcePoint" />
            <mxPoint x="299" y="891" as="targetPoint" />
            <Array as="points">
              <mxPoint x="215" y="647" />
              <mxPoint x="248" y="647" />
              <mxPoint x="248" y="883" />
            </Array>
          </mxGeometry>
        </mxCell>
        <mxCell id="4N_46-_X6e6o6Iuuag_l-94" value="&lt;b&gt;1&lt;/b&gt;" style="text;html=1;align=center;verticalAlign=middle;whiteSpace=wrap;rounded=0;" vertex="1" parent="1">
          <mxGeometry x="227" y="648" width="60" height="30" as="geometry" />
        </mxCell>
        <mxCell id="4N_46-_X6e6o6Iuuag_l-95" value="" style="endArrow=open;html=1;rounded=0;entryX=-0.012;entryY=0.091;entryDx=0;entryDy=0;entryPerimeter=0;strokeWidth=2;endFill=0;endSize=12;exitX=1;exitY=0.5;exitDx=0;exitDy=0;" edge="1" parent="1" source="4N_46-_X6e6o6Iuuag_l-92" target="4N_46-_X6e6o6Iuuag_l-83">
          <mxGeometry width="50" height="50" relative="1" as="geometry">
            <mxPoint x="516" y="797" as="sourcePoint" />
            <mxPoint x="655" y="764" as="targetPoint" />
            <Array as="points">
              <mxPoint x="815" y="909" />
              <mxPoint x="815" y="829" />
            </Array>
          </mxGeometry>
        </mxCell>
        <mxCell id="4N_46-_X6e6o6Iuuag_l-96" value="&lt;b&gt;M&lt;/b&gt;" style="text;html=1;align=center;verticalAlign=middle;whiteSpace=wrap;rounded=0;" vertex="1" parent="1">
          <mxGeometry x="815" y="801" width="60" height="30" as="geometry" />
        </mxCell>
        <mxCell id="4N_46-_X6e6o6Iuuag_l-97" value="" style="endArrow=open;endFill=0;endSize=12;html=1;rounded=0;exitX=1;exitY=0.5;exitDx=0;exitDy=0;strokeWidth=2;entryX=1.002;entryY=0.192;entryDx=0;entryDy=0;entryPerimeter=0;" edge="1" parent="1" source="4N_46-_X6e6o6Iuuag_l-87" target="4N_46-_X6e6o6Iuuag_l-30">
          <mxGeometry width="160" relative="1" as="geometry">
            <mxPoint x="1090" y="929.5" as="sourcePoint" />
            <mxPoint x="965" y="90" as="targetPoint" />
            <Array as="points">
              <mxPoint x="1120" y="938" />
              <mxPoint x="1120" y="94" />
            </Array>
          </mxGeometry>
        </mxCell>
        <mxCell id="4N_46-_X6e6o6Iuuag_l-98" value="&lt;b&gt;M&lt;/b&gt;" style="text;html=1;align=center;verticalAlign=middle;whiteSpace=wrap;rounded=0;" vertex="1" parent="1">
          <mxGeometry x="1040" y="910" width="60" height="30" as="geometry" />
        </mxCell>
      </root>
    </mxGraphModel>
  </diagram>
  <diagram name="uml-diagram-dbs" id="8SSsmgxkjccq9p-8lw96">
    <mxGraphModel dx="1687" dy="991" grid="1" gridSize="10" guides="1" tooltips="1" connect="1" arrows="1" fold="1" page="1" pageScale="1" pageWidth="1169" pageHeight="827" math="0" shadow="0">
      <root>
        <mxCell id="M9_vmGsoGL-ESWC7RVvU-0" />
        <mxCell id="M9_vmGsoGL-ESWC7RVvU-1" parent="M9_vmGsoGL-ESWC7RVvU-0" />
        <mxCell id="M9_vmGsoGL-ESWC7RVvU-2" value="Person" style="swimlane;fontStyle=0;childLayout=stackLayout;horizontal=1;startSize=25;fillColor=#e1d5e7;horizontalStack=0;resizeParent=1;resizeParentMax=0;resizeLast=0;collapsible=1;marginBottom=0;whiteSpace=wrap;html=1;strokeWidth=2;strokeColor=#9673a6;" parent="M9_vmGsoGL-ESWC7RVvU-1" vertex="1">
          <mxGeometry x="89" y="649" width="150" height="155" as="geometry" />
        </mxCell>
        <mxCell id="8J4_bS-kGN_HOkgpOpFL-0" value="elementId: string&amp;nbsp; &amp;lt;pk&amp;gt;" style="text;strokeColor=none;fillColor=none;align=left;verticalAlign=top;spacingLeft=4;spacingRight=4;overflow=hidden;rotatable=0;points=[[0,0.5],[1,0.5]];portConstraint=eastwest;whiteSpace=wrap;html=1;strokeWidth=2;" parent="M9_vmGsoGL-ESWC7RVvU-2" vertex="1">
          <mxGeometry y="25" width="150" height="26" as="geometry" />
        </mxCell>
        <mxCell id="M9_vmGsoGL-ESWC7RVvU-3" value="person_id: integer" style="text;strokeColor=none;fillColor=#FFCCCC;align=left;verticalAlign=top;spacingLeft=4;spacingRight=4;overflow=hidden;rotatable=0;points=[[0,0.5],[1,0.5]];portConstraint=eastwest;whiteSpace=wrap;html=1;strokeWidth=2;labelBackgroundColor=none;gradientColor=none;labelBorderColor=none;" parent="M9_vmGsoGL-ESWC7RVvU-2" vertex="1">
          <mxGeometry y="51" width="150" height="26" as="geometry" />
        </mxCell>
        <mxCell id="M9_vmGsoGL-ESWC7RVvU-4" value="first_n&lt;span style=&quot;background-color: initial;&quot;&gt;ame: string&lt;/span&gt;&lt;div&gt;&lt;div&gt;&lt;br&gt;&lt;/div&gt;&lt;/div&gt;" style="text;strokeColor=none;fillColor=#FFE6CC;align=left;verticalAlign=top;spacingLeft=4;spacingRight=4;overflow=hidden;rotatable=0;points=[[0,0.5],[1,0.5]];portConstraint=eastwest;whiteSpace=wrap;html=1;" parent="M9_vmGsoGL-ESWC7RVvU-2" vertex="1">
          <mxGeometry y="77" width="150" height="26" as="geometry" />
        </mxCell>
        <mxCell id="M9_vmGsoGL-ESWC7RVvU-5" value="last_name: string" style="text;strokeColor=none;fillColor=#FFFFCC;align=left;verticalAlign=top;spacingLeft=4;spacingRight=4;overflow=hidden;rotatable=0;points=[[0,0.5],[1,0.5]];portConstraint=eastwest;whiteSpace=wrap;html=1;" parent="M9_vmGsoGL-ESWC7RVvU-2" vertex="1">
          <mxGeometry y="103" width="150" height="26" as="geometry" />
        </mxCell>
        <mxCell id="M9_vmGsoGL-ESWC7RVvU-6" value="mail: string&lt;div&gt;&lt;br&gt;&lt;/div&gt;" style="text;strokeColor=none;fillColor=#E6FFCC;align=left;verticalAlign=top;spacingLeft=4;spacingRight=4;overflow=hidden;rotatable=0;points=[[0,0.5],[1,0.5]];portConstraint=eastwest;whiteSpace=wrap;html=1;" parent="M9_vmGsoGL-ESWC7RVvU-2" vertex="1">
          <mxGeometry y="129" width="150" height="26" as="geometry" />
        </mxCell>
        <mxCell id="M9_vmGsoGL-ESWC7RVvU-7" value="Customer" style="swimlane;fontStyle=0;childLayout=stackLayout;horizontal=1;startSize=24;fillColor=#dae8fc;horizontalStack=0;resizeParent=1;resizeParentMax=0;resizeLast=0;collapsible=1;marginBottom=0;whiteSpace=wrap;html=1;strokeWidth=2;strokeColor=#6c8ebf;" parent="M9_vmGsoGL-ESWC7RVvU-1" vertex="1">
          <mxGeometry x="223" y="69" width="160" height="128" as="geometry" />
        </mxCell>
        <mxCell id="M9_vmGsoGL-ESWC7RVvU-8" value="customer_id: bigint&amp;nbsp; &amp;lt;pk&amp;gt;&lt;div&gt;&lt;br&gt;&lt;/div&gt;" style="text;strokeColor=none;fillColor=#FFCCCC;align=left;verticalAlign=top;spacingLeft=4;spacingRight=4;overflow=hidden;rotatable=0;points=[[0,0.5],[1,0.5]];portConstraint=eastwest;whiteSpace=wrap;html=1;strokeWidth=2;labelBackgroundColor=none;" parent="M9_vmGsoGL-ESWC7RVvU-7" vertex="1">
          <mxGeometry y="24" width="160" height="26" as="geometry" />
        </mxCell>
        <mxCell id="M9_vmGsoGL-ESWC7RVvU-9" value="first_n&lt;span style=&quot;background-color: initial;&quot;&gt;ame: text&lt;/span&gt;&lt;div&gt;&lt;div&gt;&lt;br&gt;&lt;/div&gt;&lt;/div&gt;" style="text;strokeColor=none;fillColor=#FFE6CC;align=left;verticalAlign=top;spacingLeft=4;spacingRight=4;overflow=hidden;rotatable=0;points=[[0,0.5],[1,0.5]];portConstraint=eastwest;whiteSpace=wrap;html=1;" parent="M9_vmGsoGL-ESWC7RVvU-7" vertex="1">
          <mxGeometry y="50" width="160" height="26" as="geometry" />
        </mxCell>
        <mxCell id="M9_vmGsoGL-ESWC7RVvU-10" value="last_name: text" style="text;strokeColor=none;fillColor=#FFFFCC;align=left;verticalAlign=top;spacingLeft=4;spacingRight=4;overflow=hidden;rotatable=0;points=[[0,0.5],[1,0.5]];portConstraint=eastwest;whiteSpace=wrap;html=1;" parent="M9_vmGsoGL-ESWC7RVvU-7" vertex="1">
          <mxGeometry y="76" width="160" height="26" as="geometry" />
        </mxCell>
        <mxCell id="M9_vmGsoGL-ESWC7RVvU-11" value="mail: text&lt;div&gt;&lt;br&gt;&lt;/div&gt;" style="text;strokeColor=none;fillColor=#E6FFCC;align=left;verticalAlign=top;spacingLeft=4;spacingRight=4;overflow=hidden;rotatable=0;points=[[0,0.5],[1,0.5]];portConstraint=eastwest;whiteSpace=wrap;html=1;" parent="M9_vmGsoGL-ESWC7RVvU-7" vertex="1">
          <mxGeometry y="102" width="160" height="26" as="geometry" />
        </mxCell>
        <mxCell id="M9_vmGsoGL-ESWC7RVvU-12" value="Post" style="swimlane;fontStyle=0;childLayout=stackLayout;horizontal=1;startSize=25;fillColor=#e1d5e7;horizontalStack=0;resizeParent=1;resizeParentMax=0;resizeLast=0;collapsible=1;marginBottom=0;whiteSpace=wrap;html=1;strokeWidth=2;strokeColor=#9673a6;" parent="M9_vmGsoGL-ESWC7RVvU-1" vertex="1">
          <mxGeometry x="654" y="716" width="140" height="129" as="geometry" />
        </mxCell>
        <mxCell id="8J4_bS-kGN_HOkgpOpFL-14" value="elementId: string&amp;nbsp; &amp;lt;pk&amp;gt;" style="text;strokeColor=none;fillColor=none;align=left;verticalAlign=top;spacingLeft=4;spacingRight=4;overflow=hidden;rotatable=0;points=[[0,0.5],[1,0.5]];portConstraint=eastwest;whiteSpace=wrap;html=1;strokeWidth=2;" parent="M9_vmGsoGL-ESWC7RVvU-12" vertex="1">
          <mxGeometry y="25" width="140" height="26" as="geometry" />
        </mxCell>
        <mxCell id="M9_vmGsoGL-ESWC7RVvU-13" value="post_id: integer" style="text;strokeColor=none;fillColor=none;align=left;verticalAlign=top;spacingLeft=4;spacingRight=4;overflow=hidden;rotatable=0;points=[[0,0.5],[1,0.5]];portConstraint=eastwest;whiteSpace=wrap;html=1;strokeWidth=2;" parent="M9_vmGsoGL-ESWC7RVvU-12" vertex="1">
          <mxGeometry y="51" width="140" height="26" as="geometry" />
        </mxCell>
        <mxCell id="M9_vmGsoGL-ESWC7RVvU-14" value="&lt;div&gt;content: string&lt;/div&gt;" style="text;strokeColor=none;fillColor=none;align=left;verticalAlign=top;spacingLeft=4;spacingRight=4;overflow=hidden;rotatable=0;points=[[0,0.5],[1,0.5]];portConstraint=eastwest;whiteSpace=wrap;html=1;" parent="M9_vmGsoGL-ESWC7RVvU-12" vertex="1">
          <mxGeometry y="77" width="140" height="26" as="geometry" />
        </mxCell>
        <mxCell id="M9_vmGsoGL-ESWC7RVvU-15" value="lengh: int" style="text;strokeColor=none;fillColor=none;align=left;verticalAlign=top;spacingLeft=4;spacingRight=4;overflow=hidden;rotatable=0;points=[[0,0.5],[1,0.5]];portConstraint=eastwest;whiteSpace=wrap;html=1;" parent="M9_vmGsoGL-ESWC7RVvU-12" vertex="1">
          <mxGeometry y="103" width="140" height="26" as="geometry" />
        </mxCell>
        <mxCell id="M9_vmGsoGL-ESWC7RVvU-16" value="Order" style="swimlane;fontStyle=0;childLayout=stackLayout;horizontal=1;startSize=28;fillColor=#d5e8d4;horizontalStack=0;resizeParent=1;resizeParentMax=0;resizeLast=0;collapsible=1;marginBottom=0;whiteSpace=wrap;html=1;strokeWidth=2;strokeColor=#82b366;" parent="M9_vmGsoGL-ESWC7RVvU-1" vertex="1">
          <mxGeometry x="492" y="273" width="170" height="132" as="geometry" />
        </mxCell>
        <mxCell id="8J4_bS-kGN_HOkgpOpFL-19" value="&lt;div&gt;_id: objectId&amp;nbsp; &amp;lt;pk&amp;gt;&lt;/div&gt;" style="text;strokeColor=none;fillColor=none;align=left;verticalAlign=top;spacingLeft=4;spacingRight=4;overflow=hidden;rotatable=0;points=[[0,0.5],[1,0.5]];portConstraint=eastwest;whiteSpace=wrap;html=1;" parent="M9_vmGsoGL-ESWC7RVvU-16" vertex="1">
          <mxGeometry y="28" width="170" height="26" as="geometry" />
        </mxCell>
        <mxCell id="M9_vmGsoGL-ESWC7RVvU-17" value="order_id: long" style="text;strokeColor=none;fillColor=#CCFFCC;align=left;verticalAlign=top;spacingLeft=4;spacingRight=4;overflow=hidden;rotatable=0;points=[[0,0.5],[1,0.5]];portConstraint=eastwest;whiteSpace=wrap;html=1;strokeWidth=2;" parent="M9_vmGsoGL-ESWC7RVvU-16" vertex="1">
          <mxGeometry y="54" width="170" height="26" as="geometry" />
        </mxCell>
        <mxCell id="M9_vmGsoGL-ESWC7RVvU-18" value="&lt;div&gt;customer_id: long&amp;nbsp;&amp;nbsp;&amp;lt;fk&amp;gt;&lt;/div&gt;" style="text;strokeColor=none;fillColor=#FFCCCC;align=left;verticalAlign=top;spacingLeft=4;spacingRight=4;overflow=hidden;rotatable=0;points=[[0,0.5],[1,0.5]];portConstraint=eastwest;whiteSpace=wrap;html=1;" parent="M9_vmGsoGL-ESWC7RVvU-16" vertex="1">
          <mxGeometry y="80" width="170" height="26" as="geometry" />
        </mxCell>
        <mxCell id="M9_vmGsoGL-ESWC7RVvU-19" value="total_price: double" style="text;strokeColor=none;fillColor=#CCFFE6;align=left;verticalAlign=top;spacingLeft=4;spacingRight=4;overflow=hidden;rotatable=0;points=[[0,0.5],[1,0.5]];portConstraint=eastwest;whiteSpace=wrap;html=1;" parent="M9_vmGsoGL-ESWC7RVvU-16" vertex="1">
          <mxGeometry y="106" width="170" height="26" as="geometry" />
        </mxCell>
        <mxCell id="M9_vmGsoGL-ESWC7RVvU-20" value="order_line" style="swimlane;fontStyle=0;childLayout=stackLayout;horizontal=1;startSize=26;fillColor=#d5e8d4;horizontalStack=0;resizeParent=1;resizeParentMax=0;resizeLast=0;collapsible=1;marginBottom=0;whiteSpace=wrap;html=1;strokeWidth=2;strokeColor=#82b366;dashed=1;dashPattern=1 2;" parent="M9_vmGsoGL-ESWC7RVvU-1" vertex="1">
          <mxGeometry x="784" y="274" width="170" height="130" as="geometry" />
        </mxCell>
        <mxCell id="M9_vmGsoGL-ESWC7RVvU-21" value="product_id: int32" style="text;strokeColor=none;fillColor=#CCCCFF;align=left;verticalAlign=top;spacingLeft=4;spacingRight=4;overflow=hidden;rotatable=0;points=[[0,0.5],[1,0.5]];portConstraint=eastwest;whiteSpace=wrap;html=1;strokeWidth=2;" parent="M9_vmGsoGL-ESWC7RVvU-20" vertex="1">
          <mxGeometry y="26" width="170" height="26" as="geometry" />
        </mxCell>
        <mxCell id="M9_vmGsoGL-ESWC7RVvU-22" value="&lt;div&gt;asin: string&lt;/div&gt;" style="text;strokeColor=none;fillColor=#E5CCFF;align=left;verticalAlign=top;spacingLeft=4;spacingRight=4;overflow=hidden;rotatable=0;points=[[0,0.5],[1,0.5]];portConstraint=eastwest;whiteSpace=wrap;html=1;" parent="M9_vmGsoGL-ESWC7RVvU-20" vertex="1">
          <mxGeometry y="52" width="170" height="26" as="geometry" />
        </mxCell>
        <mxCell id="M9_vmGsoGL-ESWC7RVvU-23" value="&lt;div&gt;product_title: string&lt;/div&gt;" style="text;strokeColor=none;fillColor=none;align=left;verticalAlign=top;spacingLeft=4;spacingRight=4;overflow=hidden;rotatable=0;points=[[0,0.5],[1,0.5]];portConstraint=eastwest;whiteSpace=wrap;html=1;" parent="M9_vmGsoGL-ESWC7RVvU-20" vertex="1">
          <mxGeometry y="78" width="170" height="26" as="geometry" />
        </mxCell>
        <mxCell id="M9_vmGsoGL-ESWC7RVvU-24" value="price: double" style="text;strokeColor=none;fillColor=none;align=left;verticalAlign=top;spacingLeft=4;spacingRight=4;overflow=hidden;rotatable=0;points=[[0,0.5],[1,0.5]];portConstraint=eastwest;whiteSpace=wrap;html=1;" parent="M9_vmGsoGL-ESWC7RVvU-20" vertex="1">
          <mxGeometry y="104" width="170" height="26" as="geometry" />
        </mxCell>
        <mxCell id="M9_vmGsoGL-ESWC7RVvU-25" value="" style="endArrow=diamondThin;endFill=1;endSize=24;html=1;rounded=0;strokeWidth=2;entryX=0.994;entryY=0.1;entryDx=0;entryDy=0;entryPerimeter=0;exitX=-0.006;exitY=0.092;exitDx=0;exitDy=0;exitPerimeter=0;" parent="M9_vmGsoGL-ESWC7RVvU-1" source="M9_vmGsoGL-ESWC7RVvU-20" target="M9_vmGsoGL-ESWC7RVvU-16" edge="1">
          <mxGeometry width="160" relative="1" as="geometry">
            <mxPoint x="754" y="262" as="sourcePoint" />
            <mxPoint x="684" y="272" as="targetPoint" />
          </mxGeometry>
        </mxCell>
        <mxCell id="M9_vmGsoGL-ESWC7RVvU-26" value="Invoice" style="swimlane;fontStyle=0;childLayout=stackLayout;horizontal=1;startSize=25;fillColor=#dae8fc;horizontalStack=0;resizeParent=1;resizeParentMax=0;resizeLast=0;collapsible=1;marginBottom=0;whiteSpace=wrap;html=1;strokeWidth=2;strokeColor=#6c8ebf;" parent="M9_vmGsoGL-ESWC7RVvU-1" vertex="1">
          <mxGeometry x="504" y="70" width="150" height="129" as="geometry" />
        </mxCell>
        <mxCell id="M9_vmGsoGL-ESWC7RVvU-27" value="order_id: bigint&amp;nbsp; &amp;lt;pk&amp;gt;" style="text;strokeColor=none;fillColor=#CCFFCC;align=left;verticalAlign=top;spacingLeft=4;spacingRight=4;overflow=hidden;rotatable=0;points=[[0,0.5],[1,0.5]];portConstraint=eastwest;whiteSpace=wrap;html=1;strokeWidth=2;" parent="M9_vmGsoGL-ESWC7RVvU-26" vertex="1">
          <mxGeometry y="25" width="150" height="26" as="geometry" />
        </mxCell>
        <mxCell id="M9_vmGsoGL-ESWC7RVvU-28" value="&lt;div&gt;customer_id: bigint&amp;nbsp;&amp;nbsp;&amp;lt;fk&amp;gt;&lt;/div&gt;" style="text;strokeColor=none;fillColor=#FFCCCC;align=left;verticalAlign=top;spacingLeft=4;spacingRight=4;overflow=hidden;rotatable=0;points=[[0,0.5],[1,0.5]];portConstraint=eastwest;whiteSpace=wrap;html=1;gradientColor=none;" parent="M9_vmGsoGL-ESWC7RVvU-26" vertex="1">
          <mxGeometry y="51" width="150" height="26" as="geometry" />
        </mxCell>
        <mxCell id="M9_vmGsoGL-ESWC7RVvU-29" value="total_price: float" style="text;strokeColor=none;fillColor=#CCFFE6;align=left;verticalAlign=top;spacingLeft=4;spacingRight=4;overflow=hidden;rotatable=0;points=[[0,0.5],[1,0.5]];portConstraint=eastwest;whiteSpace=wrap;html=1;" parent="M9_vmGsoGL-ESWC7RVvU-26" vertex="1">
          <mxGeometry y="77" width="150" height="26" as="geometry" />
        </mxCell>
        <mxCell id="M9_vmGsoGL-ESWC7RVvU-30" value="&lt;div&gt;number_of_items: int&lt;/div&gt;" style="text;strokeColor=none;fillColor=none;align=left;verticalAlign=top;spacingLeft=4;spacingRight=4;overflow=hidden;rotatable=0;points=[[0,0.5],[1,0.5]];portConstraint=eastwest;whiteSpace=wrap;html=1;" parent="M9_vmGsoGL-ESWC7RVvU-26" vertex="1">
          <mxGeometry y="103" width="150" height="26" as="geometry" />
        </mxCell>
        <mxCell id="M9_vmGsoGL-ESWC7RVvU-31" value="Vendor" style="swimlane;fontStyle=0;childLayout=stackLayout;horizontal=1;startSize=25;fillColor=#dae8fc;horizontalStack=0;resizeParent=1;resizeParentMax=0;resizeLast=0;collapsible=1;marginBottom=0;whiteSpace=wrap;html=1;strokeWidth=2;strokeColor=#6c8ebf;" parent="M9_vmGsoGL-ESWC7RVvU-1" vertex="1">
          <mxGeometry x="794" y="72" width="140" height="103" as="geometry" />
        </mxCell>
        <mxCell id="M9_vmGsoGL-ESWC7RVvU-32" value="vendor_id: int&amp;nbsp; &amp;lt;pk&amp;gt;" style="text;strokeColor=none;fillColor=#CCFFFF;align=left;verticalAlign=top;spacingLeft=4;spacingRight=4;overflow=hidden;rotatable=0;points=[[0,0.5],[1,0.5]];portConstraint=eastwest;whiteSpace=wrap;html=1;strokeWidth=2;" parent="M9_vmGsoGL-ESWC7RVvU-31" vertex="1">
          <mxGeometry y="25" width="140" height="26" as="geometry" />
        </mxCell>
        <mxCell id="M9_vmGsoGL-ESWC7RVvU-33" value="&lt;div&gt;&lt;div&gt;vendor: varchar(32)&lt;/div&gt;&lt;/div&gt;" style="text;strokeColor=none;fillColor=#CCE5FF;align=left;verticalAlign=top;spacingLeft=4;spacingRight=4;overflow=hidden;rotatable=0;points=[[0,0.5],[1,0.5]];portConstraint=eastwest;whiteSpace=wrap;html=1;" parent="M9_vmGsoGL-ESWC7RVvU-31" vertex="1">
          <mxGeometry y="51" width="140" height="26" as="geometry" />
        </mxCell>
        <mxCell id="M9_vmGsoGL-ESWC7RVvU-34" value="country: text" style="text;strokeColor=none;fillColor=none;align=left;verticalAlign=top;spacingLeft=4;spacingRight=4;overflow=hidden;rotatable=0;points=[[0,0.5],[1,0.5]];portConstraint=eastwest;whiteSpace=wrap;html=1;" parent="M9_vmGsoGL-ESWC7RVvU-31" vertex="1">
          <mxGeometry y="77" width="140" height="26" as="geometry" />
        </mxCell>
        <mxCell id="M9_vmGsoGL-ESWC7RVvU-35" value="Tag" style="swimlane;fontStyle=0;childLayout=stackLayout;horizontal=1;startSize=23;fillColor=#e1d5e7;horizontalStack=0;resizeParent=1;resizeParentMax=0;resizeLast=0;collapsible=1;marginBottom=0;whiteSpace=wrap;html=1;strokeWidth=2;strokeColor=#9673a6;" parent="M9_vmGsoGL-ESWC7RVvU-1" vertex="1">
          <mxGeometry x="654" y="570" width="140" height="127" as="geometry" />
        </mxCell>
        <mxCell id="8J4_bS-kGN_HOkgpOpFL-13" value="elementId: string&amp;nbsp; &amp;lt;pk&amp;gt;" style="text;strokeColor=none;fillColor=none;align=left;verticalAlign=top;spacingLeft=4;spacingRight=4;overflow=hidden;rotatable=0;points=[[0,0.5],[1,0.5]];portConstraint=eastwest;whiteSpace=wrap;html=1;strokeWidth=2;" parent="M9_vmGsoGL-ESWC7RVvU-35" vertex="1">
          <mxGeometry y="23" width="140" height="26" as="geometry" />
        </mxCell>
        <mxCell id="M9_vmGsoGL-ESWC7RVvU-36" value="tag_id: integer" style="text;strokeColor=none;fillColor=none;align=left;verticalAlign=top;spacingLeft=4;spacingRight=4;overflow=hidden;rotatable=0;points=[[0,0.5],[1,0.5]];portConstraint=eastwest;whiteSpace=wrap;html=1;strokeWidth=2;" parent="M9_vmGsoGL-ESWC7RVvU-35" vertex="1">
          <mxGeometry y="49" width="140" height="26" as="geometry" />
        </mxCell>
        <mxCell id="M9_vmGsoGL-ESWC7RVvU-37" value="vendors: string[ ]" style="text;strokeColor=none;fillColor=#CCE5FF;align=left;verticalAlign=top;spacingLeft=4;spacingRight=4;overflow=hidden;rotatable=0;points=[[0,0.5],[1,0.5]];portConstraint=eastwest;whiteSpace=wrap;html=1;" parent="M9_vmGsoGL-ESWC7RVvU-35" vertex="1">
          <mxGeometry y="75" width="140" height="26" as="geometry" />
        </mxCell>
        <mxCell id="M9_vmGsoGL-ESWC7RVvU-38" value="&lt;div&gt;name: string&lt;/div&gt;" style="text;strokeColor=none;fillColor=none;align=left;verticalAlign=top;spacingLeft=4;spacingRight=4;overflow=hidden;rotatable=0;points=[[0,0.5],[1,0.5]];portConstraint=eastwest;whiteSpace=wrap;html=1;" parent="M9_vmGsoGL-ESWC7RVvU-35" vertex="1">
          <mxGeometry y="101" width="140" height="26" as="geometry" />
        </mxCell>
        <mxCell id="M9_vmGsoGL-ESWC7RVvU-39" value="HAS_INTEREST" style="swimlane;fontStyle=0;childLayout=stackLayout;horizontal=1;startSize=29;fillColor=#e1d5e7;horizontalStack=0;resizeParent=1;resizeParentMax=0;resizeLast=0;collapsible=1;marginBottom=0;whiteSpace=wrap;html=1;strokeWidth=2;strokeColor=#9673a6;" parent="M9_vmGsoGL-ESWC7RVvU-1" vertex="1">
          <mxGeometry x="325" y="568" width="190" height="107" as="geometry" />
        </mxCell>
        <mxCell id="M9_vmGsoGL-ESWC7RVvU-40" value="elementId: string&amp;nbsp; &amp;lt;pk&amp;gt;" style="text;strokeColor=none;fillColor=none;align=left;verticalAlign=top;spacingLeft=4;spacingRight=4;overflow=hidden;rotatable=0;points=[[0,0.5],[1,0.5]];portConstraint=eastwest;whiteSpace=wrap;html=1;strokeWidth=2;" parent="M9_vmGsoGL-ESWC7RVvU-39" vertex="1">
          <mxGeometry y="29" width="190" height="26" as="geometry" />
        </mxCell>
        <mxCell id="M9_vmGsoGL-ESWC7RVvU-41" value="&lt;div&gt;&lt;div&gt;startNodeElementId: string&amp;nbsp;&amp;nbsp;&amp;lt;fk&amp;gt;&lt;/div&gt;&lt;/div&gt;" style="text;strokeColor=none;fillColor=none;align=left;verticalAlign=top;spacingLeft=4;spacingRight=4;overflow=hidden;rotatable=0;points=[[0,0.5],[1,0.5]];portConstraint=eastwest;whiteSpace=wrap;html=1;" parent="M9_vmGsoGL-ESWC7RVvU-39" vertex="1">
          <mxGeometry y="55" width="190" height="26" as="geometry" />
        </mxCell>
        <mxCell id="8J4_bS-kGN_HOkgpOpFL-2" value="&lt;div&gt;&lt;div&gt;endNodeElementId: string&amp;nbsp;&amp;nbsp;&amp;lt;fk&amp;gt;&lt;/div&gt;&lt;/div&gt;" style="text;strokeColor=none;fillColor=none;align=left;verticalAlign=top;spacingLeft=4;spacingRight=4;overflow=hidden;rotatable=0;points=[[0,0.5],[1,0.5]];portConstraint=eastwest;whiteSpace=wrap;html=1;" parent="M9_vmGsoGL-ESWC7RVvU-39" vertex="1">
          <mxGeometry y="81" width="190" height="26" as="geometry" />
        </mxCell>
        <mxCell id="M9_vmGsoGL-ESWC7RVvU-42" value="WROTE" style="swimlane;fontStyle=0;childLayout=stackLayout;horizontal=1;startSize=29;fillColor=#e1d5e7;horizontalStack=0;resizeParent=1;resizeParentMax=0;resizeLast=0;collapsible=1;marginBottom=0;whiteSpace=wrap;html=1;strokeWidth=2;strokeColor=#9673a6;" parent="M9_vmGsoGL-ESWC7RVvU-1" vertex="1">
          <mxGeometry x="325" y="695" width="190" height="107" as="geometry" />
        </mxCell>
        <mxCell id="8J4_bS-kGN_HOkgpOpFL-7" value="elementId: string&amp;nbsp; &amp;lt;pk&amp;gt;" style="text;strokeColor=none;fillColor=none;align=left;verticalAlign=top;spacingLeft=4;spacingRight=4;overflow=hidden;rotatable=0;points=[[0,0.5],[1,0.5]];portConstraint=eastwest;whiteSpace=wrap;html=1;strokeWidth=2;" parent="M9_vmGsoGL-ESWC7RVvU-42" vertex="1">
          <mxGeometry y="29" width="190" height="26" as="geometry" />
        </mxCell>
        <mxCell id="8J4_bS-kGN_HOkgpOpFL-8" value="&lt;div&gt;&lt;div&gt;startNodeElementId: string&amp;nbsp;&amp;nbsp;&amp;lt;fk&amp;gt;&lt;/div&gt;&lt;/div&gt;" style="text;strokeColor=none;fillColor=none;align=left;verticalAlign=top;spacingLeft=4;spacingRight=4;overflow=hidden;rotatable=0;points=[[0,0.5],[1,0.5]];portConstraint=eastwest;whiteSpace=wrap;html=1;" parent="M9_vmGsoGL-ESWC7RVvU-42" vertex="1">
          <mxGeometry y="55" width="190" height="26" as="geometry" />
        </mxCell>
        <mxCell id="8J4_bS-kGN_HOkgpOpFL-9" value="&lt;div&gt;&lt;div&gt;endNodeElementId: string&amp;nbsp;&amp;nbsp;&amp;lt;fk&amp;gt;&lt;/div&gt;&lt;/div&gt;" style="text;strokeColor=none;fillColor=none;align=left;verticalAlign=top;spacingLeft=4;spacingRight=4;overflow=hidden;rotatable=0;points=[[0,0.5],[1,0.5]];portConstraint=eastwest;whiteSpace=wrap;html=1;" parent="M9_vmGsoGL-ESWC7RVvU-42" vertex="1">
          <mxGeometry y="81" width="190" height="26" as="geometry" />
        </mxCell>
        <mxCell id="M9_vmGsoGL-ESWC7RVvU-45" value="" style="endArrow=open;endFill=0;endSize=12;html=1;rounded=0;exitX=1;exitY=0.5;exitDx=0;exitDy=0;strokeWidth=2;entryX=1.002;entryY=0.123;entryDx=0;entryDy=0;entryPerimeter=0;" parent="M9_vmGsoGL-ESWC7RVvU-1" source="M9_vmGsoGL-ESWC7RVvU-78" target="M9_vmGsoGL-ESWC7RVvU-31" edge="1">
          <mxGeometry width="160" relative="1" as="geometry">
            <mxPoint x="954" y="417" as="sourcePoint" />
            <mxPoint x="940" y="90" as="targetPoint" />
            <Array as="points">
              <mxPoint x="1014" y="461" />
              <mxPoint x="1014" y="85" />
            </Array>
          </mxGeometry>
        </mxCell>
        <mxCell id="M9_vmGsoGL-ESWC7RVvU-46" value="" style="endArrow=none;html=1;rounded=0;exitX=0.5;exitY=0;exitDx=0;exitDy=0;entryX=0;entryY=0.5;entryDx=0;entryDy=0;strokeWidth=2;" parent="M9_vmGsoGL-ESWC7RVvU-1" source="M9_vmGsoGL-ESWC7RVvU-2" target="M9_vmGsoGL-ESWC7RVvU-40" edge="1">
          <mxGeometry width="50" height="50" relative="1" as="geometry">
            <mxPoint x="161" y="645" as="sourcePoint" />
            <mxPoint x="293" y="607.5" as="targetPoint" />
            <Array as="points">
              <mxPoint x="164" y="610" />
            </Array>
          </mxGeometry>
        </mxCell>
        <mxCell id="M9_vmGsoGL-ESWC7RVvU-47" value="" style="endArrow=open;html=1;rounded=0;exitX=1;exitY=0.5;exitDx=0;exitDy=0;entryX=-0.021;entryY=0.135;entryDx=0;entryDy=0;entryPerimeter=0;strokeWidth=2;endFill=0;endSize=12;" parent="M9_vmGsoGL-ESWC7RVvU-1" source="M9_vmGsoGL-ESWC7RVvU-41" target="M9_vmGsoGL-ESWC7RVvU-35" edge="1">
          <mxGeometry width="50" height="50" relative="1" as="geometry">
            <mxPoint x="604" y="495" as="sourcePoint" />
            <mxPoint x="654" y="445" as="targetPoint" />
            <Array as="points">
              <mxPoint x="574" y="636" />
              <mxPoint x="574" y="587" />
            </Array>
          </mxGeometry>
        </mxCell>
        <mxCell id="M9_vmGsoGL-ESWC7RVvU-48" value="" style="endArrow=none;html=1;rounded=0;strokeWidth=2;entryX=0;entryY=0.5;entryDx=0;entryDy=0;exitX=0.75;exitY=0;exitDx=0;exitDy=0;" parent="M9_vmGsoGL-ESWC7RVvU-1" source="M9_vmGsoGL-ESWC7RVvU-2" edge="1">
          <mxGeometry width="50" height="50" relative="1" as="geometry">
            <mxPoint x="184" y="630" as="sourcePoint" />
            <mxPoint x="325" y="734" as="targetPoint" />
            <Array as="points">
              <mxPoint x="201" y="620" />
              <mxPoint x="294" y="620" />
              <mxPoint x="294" y="734" />
            </Array>
          </mxGeometry>
        </mxCell>
        <mxCell id="M9_vmGsoGL-ESWC7RVvU-49" value="" style="endArrow=open;html=1;rounded=0;entryX=0.007;entryY=0.163;entryDx=0;entryDy=0;strokeWidth=2;endFill=0;endSize=12;exitX=1;exitY=0.5;exitDx=0;exitDy=0;entryPerimeter=0;" parent="M9_vmGsoGL-ESWC7RVvU-1" source="8J4_bS-kGN_HOkgpOpFL-7" target="M9_vmGsoGL-ESWC7RVvU-12" edge="1">
          <mxGeometry width="50" height="50" relative="1" as="geometry">
            <mxPoint x="515" y="737" as="sourcePoint" />
            <mxPoint x="681" y="709.5" as="targetPoint" />
            <Array as="points" />
          </mxGeometry>
        </mxCell>
        <mxCell id="M9_vmGsoGL-ESWC7RVvU-50" value="" style="endArrow=none;html=1;rounded=0;strokeWidth=2;endFill=0;endSize=12;entryX=0;entryY=0.5;entryDx=0;entryDy=0;startArrow=open;startFill=0;startSize=12;exitX=0.25;exitY=0;exitDx=0;exitDy=0;" parent="M9_vmGsoGL-ESWC7RVvU-1" source="M9_vmGsoGL-ESWC7RVvU-2" target="M9_vmGsoGL-ESWC7RVvU-18" edge="1">
          <mxGeometry width="50" height="50" relative="1" as="geometry">
            <mxPoint x="127" y="611" as="sourcePoint" />
            <mxPoint x="454" y="361" as="targetPoint" />
            <Array as="points">
              <mxPoint x="124" y="366" />
            </Array>
          </mxGeometry>
        </mxCell>
        <mxCell id="M9_vmGsoGL-ESWC7RVvU-51" value="" style="endArrow=none;html=1;rounded=0;exitX=-0.014;exitY=0.085;exitDx=0;exitDy=0;strokeWidth=2;endFill=0;endSize=12;exitPerimeter=0;entryX=0;entryY=0.5;entryDx=0;entryDy=0;startArrow=open;startFill=0;startSize=12;" parent="M9_vmGsoGL-ESWC7RVvU-1" source="M9_vmGsoGL-ESWC7RVvU-7" target="M9_vmGsoGL-ESWC7RVvU-18" edge="1">
          <mxGeometry width="50" height="50" relative="1" as="geometry">
            <mxPoint x="139" y="616" as="sourcePoint" />
            <mxPoint x="434" y="411" as="targetPoint" />
            <Array as="points">
              <mxPoint x="194" y="80" />
              <mxPoint x="194" y="366" />
            </Array>
          </mxGeometry>
        </mxCell>
        <mxCell id="M9_vmGsoGL-ESWC7RVvU-52" value="HAS_TAG" style="swimlane;fontStyle=0;childLayout=stackLayout;horizontal=1;startSize=24;fillColor=#e1d5e7;horizontalStack=0;resizeParent=1;resizeParentMax=0;resizeLast=0;collapsible=1;marginBottom=0;whiteSpace=wrap;html=1;strokeWidth=2;strokeColor=#9673a6;" parent="M9_vmGsoGL-ESWC7RVvU-1" vertex="1">
          <mxGeometry x="865" y="631" width="190" height="102" as="geometry" />
        </mxCell>
        <mxCell id="8J4_bS-kGN_HOkgpOpFL-15" value="elementId: string&amp;nbsp; &amp;lt;pk&amp;gt;" style="text;strokeColor=none;fillColor=none;align=left;verticalAlign=top;spacingLeft=4;spacingRight=4;overflow=hidden;rotatable=0;points=[[0,0.5],[1,0.5]];portConstraint=eastwest;whiteSpace=wrap;html=1;strokeWidth=2;" parent="M9_vmGsoGL-ESWC7RVvU-52" vertex="1">
          <mxGeometry y="24" width="190" height="26" as="geometry" />
        </mxCell>
        <mxCell id="8J4_bS-kGN_HOkgpOpFL-17" value="&lt;div&gt;&lt;div&gt;endNodeElementId: string&amp;nbsp;&amp;nbsp;&amp;lt;fk&amp;gt;&lt;/div&gt;&lt;/div&gt;" style="text;strokeColor=none;fillColor=none;align=left;verticalAlign=top;spacingLeft=4;spacingRight=4;overflow=hidden;rotatable=0;points=[[0,0.5],[1,0.5]];portConstraint=eastwest;whiteSpace=wrap;html=1;" parent="M9_vmGsoGL-ESWC7RVvU-52" vertex="1">
          <mxGeometry y="50" width="190" height="26" as="geometry" />
        </mxCell>
        <mxCell id="8J4_bS-kGN_HOkgpOpFL-16" value="&lt;div&gt;&lt;div&gt;startNodeElementId: string&amp;nbsp;&amp;nbsp;&amp;lt;fk&amp;gt;&lt;/div&gt;&lt;/div&gt;" style="text;strokeColor=none;fillColor=none;align=left;verticalAlign=top;spacingLeft=4;spacingRight=4;overflow=hidden;rotatable=0;points=[[0,0.5],[1,0.5]];portConstraint=eastwest;whiteSpace=wrap;html=1;" parent="M9_vmGsoGL-ESWC7RVvU-52" vertex="1">
          <mxGeometry y="76" width="190" height="26" as="geometry" />
        </mxCell>
        <mxCell id="M9_vmGsoGL-ESWC7RVvU-55" value="" style="endArrow=none;html=1;rounded=0;strokeWidth=2;" parent="M9_vmGsoGL-ESWC7RVvU-1" edge="1">
          <mxGeometry width="50" height="50" relative="1" as="geometry">
            <mxPoint x="794" y="736" as="sourcePoint" />
            <mxPoint x="953" y="736" as="targetPoint" />
            <Array as="points">
              <mxPoint x="834" y="736" />
              <mxPoint x="834" y="761" />
              <mxPoint x="953" y="761" />
            </Array>
          </mxGeometry>
        </mxCell>
        <mxCell id="M9_vmGsoGL-ESWC7RVvU-56" value="" style="endArrow=open;html=1;rounded=0;entryX=0.993;entryY=0.115;entryDx=0;entryDy=0;entryPerimeter=0;strokeWidth=2;endFill=0;endSize=12;jumpStyle=arc;exitX=0.468;exitY=-0.029;exitDx=0;exitDy=0;exitPerimeter=0;" parent="M9_vmGsoGL-ESWC7RVvU-1" source="M9_vmGsoGL-ESWC7RVvU-52" target="M9_vmGsoGL-ESWC7RVvU-35" edge="1">
          <mxGeometry width="50" height="50" relative="1" as="geometry">
            <mxPoint x="1054" y="724" as="sourcePoint" />
            <mxPoint x="1251" y="680" as="targetPoint" />
            <Array as="points">
              <mxPoint x="954" y="585" />
            </Array>
          </mxGeometry>
        </mxCell>
        <mxCell id="M9_vmGsoGL-ESWC7RVvU-57" value="&lt;b&gt;M&lt;/b&gt;" style="text;html=1;align=center;verticalAlign=middle;whiteSpace=wrap;rounded=0;" parent="M9_vmGsoGL-ESWC7RVvU-1" vertex="1">
          <mxGeometry x="155" y="583" width="60" height="30" as="geometry" />
        </mxCell>
        <mxCell id="M9_vmGsoGL-ESWC7RVvU-58" value="&lt;b&gt;1&lt;/b&gt;" style="text;html=1;align=center;verticalAlign=middle;whiteSpace=wrap;rounded=0;" parent="M9_vmGsoGL-ESWC7RVvU-1" vertex="1">
          <mxGeometry x="85" y="584" width="60" height="30" as="geometry" />
        </mxCell>
        <mxCell id="M9_vmGsoGL-ESWC7RVvU-59" value="&lt;b&gt;1&lt;/b&gt;" style="text;html=1;align=center;verticalAlign=middle;whiteSpace=wrap;rounded=0;" parent="M9_vmGsoGL-ESWC7RVvU-1" vertex="1">
          <mxGeometry x="273" y="631" width="60" height="30" as="geometry" />
        </mxCell>
        <mxCell id="M9_vmGsoGL-ESWC7RVvU-60" value="&lt;b&gt;N&lt;/b&gt;" style="text;html=1;align=center;verticalAlign=middle;whiteSpace=wrap;rounded=0;" parent="M9_vmGsoGL-ESWC7RVvU-1" vertex="1">
          <mxGeometry x="584" y="583" width="60" height="30" as="geometry" />
        </mxCell>
        <mxCell id="M9_vmGsoGL-ESWC7RVvU-61" value="&lt;b&gt;M&lt;/b&gt;" style="text;html=1;align=center;verticalAlign=middle;whiteSpace=wrap;rounded=0;" parent="M9_vmGsoGL-ESWC7RVvU-1" vertex="1">
          <mxGeometry x="584" y="709" width="60" height="30" as="geometry" />
        </mxCell>
        <mxCell id="M9_vmGsoGL-ESWC7RVvU-62" value="&lt;b&gt;M&lt;/b&gt;" style="text;html=1;align=center;verticalAlign=middle;whiteSpace=wrap;rounded=0;" parent="M9_vmGsoGL-ESWC7RVvU-1" vertex="1">
          <mxGeometry x="794" y="703" width="60" height="30" as="geometry" />
        </mxCell>
        <mxCell id="M9_vmGsoGL-ESWC7RVvU-63" value="&lt;b&gt;N&lt;/b&gt;" style="text;html=1;align=center;verticalAlign=middle;whiteSpace=wrap;rounded=0;" parent="M9_vmGsoGL-ESWC7RVvU-1" vertex="1">
          <mxGeometry x="794" y="580" width="60" height="30" as="geometry" />
        </mxCell>
        <mxCell id="M9_vmGsoGL-ESWC7RVvU-64" value="&lt;b&gt;M&lt;/b&gt;" style="text;html=1;align=center;verticalAlign=middle;whiteSpace=wrap;rounded=0;" parent="M9_vmGsoGL-ESWC7RVvU-1" vertex="1">
          <mxGeometry x="432" y="324" width="60" height="30" as="geometry" />
        </mxCell>
        <mxCell id="M9_vmGsoGL-ESWC7RVvU-65" value="&lt;b&gt;M&lt;/b&gt;" style="text;html=1;align=center;verticalAlign=middle;whiteSpace=wrap;rounded=0;" parent="M9_vmGsoGL-ESWC7RVvU-1" vertex="1">
          <mxGeometry x="954" y="432" width="60" height="30" as="geometry" />
        </mxCell>
        <mxCell id="M9_vmGsoGL-ESWC7RVvU-66" value="&lt;b&gt;1&lt;/b&gt;" style="text;html=1;align=center;verticalAlign=middle;whiteSpace=wrap;rounded=0;" parent="M9_vmGsoGL-ESWC7RVvU-1" vertex="1">
          <mxGeometry x="940" y="60" width="60" height="30" as="geometry" />
        </mxCell>
        <mxCell id="M9_vmGsoGL-ESWC7RVvU-67" value="" style="rounded=1;whiteSpace=wrap;html=1;opacity=50;fillColor=none;arcSize=4;strokeWidth=3;dashed=1;strokeColor=#9673a6;fontStyle=4" parent="M9_vmGsoGL-ESWC7RVvU-1" vertex="1">
          <mxGeometry x="66" y="549.5" width="1043" height="470" as="geometry" />
        </mxCell>
        <mxCell id="M9_vmGsoGL-ESWC7RVvU-68" value="&lt;b&gt;&lt;font style=&quot;font-size: 16px;&quot;&gt;Neo4j&lt;/font&gt;&lt;/b&gt;" style="text;html=1;align=center;verticalAlign=middle;whiteSpace=wrap;rounded=0;" parent="M9_vmGsoGL-ESWC7RVvU-1" vertex="1">
          <mxGeometry x="95" y="980" width="60" height="30" as="geometry" />
        </mxCell>
        <mxCell id="M9_vmGsoGL-ESWC7RVvU-69" value="" style="rounded=1;whiteSpace=wrap;html=1;opacity=50;fillColor=none;arcSize=4;strokeWidth=3;dashed=1;strokeColor=#82b366;" parent="M9_vmGsoGL-ESWC7RVvU-1" vertex="1">
          <mxGeometry x="66" y="256" width="1042" height="265" as="geometry" />
        </mxCell>
        <mxCell id="M9_vmGsoGL-ESWC7RVvU-70" value="" style="rounded=1;whiteSpace=wrap;html=1;opacity=50;fillColor=none;arcSize=4;strokeWidth=3;dashed=1;strokeColor=#6c8ebf;" parent="M9_vmGsoGL-ESWC7RVvU-1" vertex="1">
          <mxGeometry x="66" y="46.5" width="1042" height="176" as="geometry" />
        </mxCell>
        <mxCell id="M9_vmGsoGL-ESWC7RVvU-71" value="&lt;b&gt;&lt;font style=&quot;font-size: 16px;&quot;&gt;MongoDB&lt;/font&gt;&lt;/b&gt;" style="text;html=1;align=center;verticalAlign=middle;whiteSpace=wrap;rounded=0;" parent="M9_vmGsoGL-ESWC7RVvU-1" vertex="1">
          <mxGeometry x="160" y="484" width="60" height="30" as="geometry" />
        </mxCell>
        <mxCell id="M9_vmGsoGL-ESWC7RVvU-73" value="&lt;b&gt;1&lt;/b&gt;" style="text;html=1;align=center;verticalAlign=middle;whiteSpace=wrap;rounded=0;" parent="M9_vmGsoGL-ESWC7RVvU-1" vertex="1">
          <mxGeometry x="151" y="66" width="60" height="30" as="geometry" />
        </mxCell>
        <mxCell id="M9_vmGsoGL-ESWC7RVvU-74" value="&lt;b&gt;1&lt;/b&gt;" style="text;html=1;align=center;verticalAlign=middle;whiteSpace=wrap;rounded=0;" parent="M9_vmGsoGL-ESWC7RVvU-1" vertex="1">
          <mxGeometry x="672" y="256" width="60" height="30" as="geometry" />
        </mxCell>
        <mxCell id="M9_vmGsoGL-ESWC7RVvU-75" value="&lt;b&gt;M&lt;/b&gt;" style="text;html=1;align=center;verticalAlign=middle;whiteSpace=wrap;rounded=0;" parent="M9_vmGsoGL-ESWC7RVvU-1" vertex="1">
          <mxGeometry x="725" y="256" width="60" height="30" as="geometry" />
        </mxCell>
        <mxCell id="M9_vmGsoGL-ESWC7RVvU-76" value="" style="endArrow=none;endFill=0;endSize=12;html=1;rounded=0;exitX=0;exitY=0.5;exitDx=0;exitDy=0;strokeWidth=2;" parent="M9_vmGsoGL-ESWC7RVvU-1" source="M9_vmGsoGL-ESWC7RVvU-28" edge="1">
          <mxGeometry width="160" relative="1" as="geometry">
            <mxPoint x="504" y="128" as="sourcePoint" />
            <mxPoint x="424" y="367" as="targetPoint" />
            <Array as="points">
              <mxPoint x="424" y="134" />
            </Array>
          </mxGeometry>
        </mxCell>
        <mxCell id="M9_vmGsoGL-ESWC7RVvU-77" value="&lt;b&gt;M&lt;/b&gt;" style="text;html=1;align=center;verticalAlign=middle;whiteSpace=wrap;rounded=0;" parent="M9_vmGsoGL-ESWC7RVvU-1" vertex="1">
          <mxGeometry x="435" y="107" width="60" height="30" as="geometry" />
        </mxCell>
        <mxCell id="M9_vmGsoGL-ESWC7RVvU-78" value="vendor" style="swimlane;fontStyle=0;childLayout=stackLayout;horizontal=1;startSize=26;fillColor=#d5e8d4;horizontalStack=0;resizeParent=1;resizeParentMax=0;resizeLast=0;collapsible=1;marginBottom=0;whiteSpace=wrap;html=1;strokeWidth=2;strokeColor=#82b366;dashed=1;dashPattern=1 2;" parent="M9_vmGsoGL-ESWC7RVvU-1" vertex="1">
          <mxGeometry x="784" y="422" width="170" height="78" as="geometry" />
        </mxCell>
        <mxCell id="M9_vmGsoGL-ESWC7RVvU-79" value="brand_id: int32&amp;nbsp; &amp;lt;fk&amp;gt;" style="text;strokeColor=none;fillColor=#CCFFFF;align=left;verticalAlign=top;spacingLeft=4;spacingRight=4;overflow=hidden;rotatable=0;points=[[0,0.5],[1,0.5]];portConstraint=eastwest;whiteSpace=wrap;html=1;strokeWidth=2;" parent="M9_vmGsoGL-ESWC7RVvU-78" vertex="1">
          <mxGeometry y="26" width="170" height="26" as="geometry" />
        </mxCell>
        <mxCell id="M9_vmGsoGL-ESWC7RVvU-80" value="&lt;div&gt;brand: string&lt;/div&gt;" style="text;strokeColor=none;fillColor=#CCE5FF;align=left;verticalAlign=top;spacingLeft=4;spacingRight=4;overflow=hidden;rotatable=0;points=[[0,0.5],[1,0.5]];portConstraint=eastwest;whiteSpace=wrap;html=1;" parent="M9_vmGsoGL-ESWC7RVvU-78" vertex="1">
          <mxGeometry y="52" width="170" height="26" as="geometry" />
        </mxCell>
        <mxCell id="M9_vmGsoGL-ESWC7RVvU-81" value="" style="endArrow=diamondThin;endFill=1;endSize=24;html=1;rounded=0;strokeWidth=2;entryX=0.018;entryY=0.038;entryDx=0;entryDy=0;entryPerimeter=0;exitX=0;exitY=0.25;exitDx=0;exitDy=0;" parent="M9_vmGsoGL-ESWC7RVvU-1" source="M9_vmGsoGL-ESWC7RVvU-78" target="M9_vmGsoGL-ESWC7RVvU-21" edge="1">
          <mxGeometry width="160" relative="1" as="geometry">
            <mxPoint x="751" y="479" as="sourcePoint" />
            <mxPoint x="629" y="479" as="targetPoint" />
            <Array as="points">
              <mxPoint x="734" y="441" />
              <mxPoint x="734" y="301" />
            </Array>
          </mxGeometry>
        </mxCell>
        <mxCell id="M9_vmGsoGL-ESWC7RVvU-82" value="&lt;b&gt;1&lt;/b&gt;" style="text;html=1;align=center;verticalAlign=middle;whiteSpace=wrap;rounded=0;" parent="M9_vmGsoGL-ESWC7RVvU-1" vertex="1">
          <mxGeometry x="725" y="304" width="60" height="30" as="geometry" />
        </mxCell>
        <mxCell id="M9_vmGsoGL-ESWC7RVvU-83" value="&lt;b&gt;1&lt;/b&gt;" style="text;html=1;align=center;verticalAlign=middle;whiteSpace=wrap;rounded=0;" parent="M9_vmGsoGL-ESWC7RVvU-1" vertex="1">
          <mxGeometry x="725" y="408" width="60" height="30" as="geometry" />
        </mxCell>
        <mxCell id="M9_vmGsoGL-ESWC7RVvU-84" value="&lt;div&gt;Feedback&lt;/div&gt;" style="swimlane;fontStyle=0;childLayout=stackLayout;horizontal=1;startSize=24;fillColor=#e1d5e7;horizontalStack=0;resizeParent=1;resizeParentMax=0;resizeLast=0;collapsible=1;marginBottom=0;whiteSpace=wrap;html=1;strokeWidth=2;strokeColor=#9673a6;" parent="M9_vmGsoGL-ESWC7RVvU-1" vertex="1">
          <mxGeometry x="884" y="793" width="160" height="206" as="geometry" />
        </mxCell>
        <mxCell id="8J4_bS-kGN_HOkgpOpFL-18" value="elementId: string&amp;nbsp; &amp;lt;pk&amp;gt;" style="text;strokeColor=none;fillColor=none;align=left;verticalAlign=top;spacingLeft=4;spacingRight=4;overflow=hidden;rotatable=0;points=[[0,0.5],[1,0.5]];portConstraint=eastwest;whiteSpace=wrap;html=1;strokeWidth=2;" parent="M9_vmGsoGL-ESWC7RVvU-84" vertex="1">
          <mxGeometry y="24" width="160" height="26" as="geometry" />
        </mxCell>
        <mxCell id="M9_vmGsoGL-ESWC7RVvU-85" value="feedback_id: integer" style="text;strokeColor=none;fillColor=none;align=left;verticalAlign=top;spacingLeft=4;spacingRight=4;overflow=hidden;rotatable=0;points=[[0,0.5],[1,0.5]];portConstraint=eastwest;whiteSpace=wrap;html=1;strokeWidth=2;" parent="M9_vmGsoGL-ESWC7RVvU-84" vertex="1">
          <mxGeometry y="50" width="160" height="26" as="geometry" />
        </mxCell>
        <mxCell id="M9_vmGsoGL-ESWC7RVvU-86" value="&lt;div&gt;product_id: integer&amp;nbsp;&lt;/div&gt;" style="text;strokeColor=none;fillColor=#CCCCFF;align=left;verticalAlign=top;spacingLeft=4;spacingRight=4;overflow=hidden;rotatable=0;points=[[0,0.5],[1,0.5]];portConstraint=eastwest;whiteSpace=wrap;html=1;" parent="M9_vmGsoGL-ESWC7RVvU-84" vertex="1">
          <mxGeometry y="76" width="160" height="26" as="geometry" />
        </mxCell>
        <mxCell id="M9_vmGsoGL-ESWC7RVvU-87" value="asin: string" style="text;strokeColor=none;fillColor=#E5CCFF;align=left;verticalAlign=top;spacingLeft=4;spacingRight=4;overflow=hidden;rotatable=0;points=[[0,0.5],[1,0.5]];portConstraint=eastwest;whiteSpace=wrap;html=1;" parent="M9_vmGsoGL-ESWC7RVvU-84" vertex="1">
          <mxGeometry y="102" width="160" height="26" as="geometry" />
        </mxCell>
        <mxCell id="M9_vmGsoGL-ESWC7RVvU-88" value="brand_id: integer&amp;nbsp; &amp;lt;fk&amp;gt;" style="text;strokeColor=none;fillColor=#CCFFFF;align=left;verticalAlign=top;spacingLeft=4;spacingRight=4;overflow=hidden;rotatable=0;points=[[0,0.5],[1,0.5]];portConstraint=eastwest;whiteSpace=wrap;html=1;" parent="M9_vmGsoGL-ESWC7RVvU-84" vertex="1">
          <mxGeometry y="128" width="160" height="26" as="geometry" />
        </mxCell>
        <mxCell id="aOHbEbozptNpz_MXjnj1-0" value="&lt;div&gt;brand: string&lt;/div&gt;" style="text;strokeColor=none;fillColor=#CCE5FF;align=left;verticalAlign=top;spacingLeft=4;spacingRight=4;overflow=hidden;rotatable=0;points=[[0,0.5],[1,0.5]];portConstraint=eastwest;whiteSpace=wrap;html=1;" parent="M9_vmGsoGL-ESWC7RVvU-84" vertex="1">
          <mxGeometry y="154" width="160" height="26" as="geometry" />
        </mxCell>
        <mxCell id="M9_vmGsoGL-ESWC7RVvU-89" value="feedback: string" style="text;strokeColor=none;fillColor=none;align=left;verticalAlign=top;spacingLeft=4;spacingRight=4;overflow=hidden;rotatable=0;points=[[0,0.5],[1,0.5]];portConstraint=eastwest;whiteSpace=wrap;html=1;" parent="M9_vmGsoGL-ESWC7RVvU-84" vertex="1">
          <mxGeometry y="180" width="160" height="26" as="geometry" />
        </mxCell>
        <mxCell id="M9_vmGsoGL-ESWC7RVvU-90" value="&lt;div&gt;HAS_CREATED&lt;/div&gt;" style="swimlane;fontStyle=0;childLayout=stackLayout;horizontal=1;startSize=27;fillColor=#e1d5e7;horizontalStack=0;resizeParent=1;resizeParentMax=0;resizeLast=0;collapsible=1;marginBottom=0;whiteSpace=wrap;html=1;strokeWidth=2;strokeColor=#9673a6;" parent="M9_vmGsoGL-ESWC7RVvU-1" vertex="1">
          <mxGeometry x="325" y="820" width="190" height="105" as="geometry" />
        </mxCell>
        <mxCell id="8J4_bS-kGN_HOkgpOpFL-10" value="elementId: string&amp;nbsp; &amp;lt;pk&amp;gt;" style="text;strokeColor=none;fillColor=none;align=left;verticalAlign=top;spacingLeft=4;spacingRight=4;overflow=hidden;rotatable=0;points=[[0,0.5],[1,0.5]];portConstraint=eastwest;whiteSpace=wrap;html=1;strokeWidth=2;" parent="M9_vmGsoGL-ESWC7RVvU-90" vertex="1">
          <mxGeometry y="27" width="190" height="26" as="geometry" />
        </mxCell>
        <mxCell id="8J4_bS-kGN_HOkgpOpFL-12" value="&lt;div&gt;&lt;div&gt;endNodeElementId: string&amp;nbsp;&amp;nbsp;&amp;lt;fk&amp;gt;&lt;/div&gt;&lt;/div&gt;" style="text;strokeColor=none;fillColor=none;align=left;verticalAlign=top;spacingLeft=4;spacingRight=4;overflow=hidden;rotatable=0;points=[[0,0.5],[1,0.5]];portConstraint=eastwest;whiteSpace=wrap;html=1;" parent="M9_vmGsoGL-ESWC7RVvU-90" vertex="1">
          <mxGeometry y="53" width="190" height="26" as="geometry" />
        </mxCell>
        <mxCell id="8J4_bS-kGN_HOkgpOpFL-11" value="&lt;div&gt;&lt;div&gt;startNodeElementId: string&amp;nbsp;&amp;nbsp;&amp;lt;fk&amp;gt;&lt;/div&gt;&lt;/div&gt;" style="text;strokeColor=none;fillColor=none;align=left;verticalAlign=top;spacingLeft=4;spacingRight=4;overflow=hidden;rotatable=0;points=[[0,0.5],[1,0.5]];portConstraint=eastwest;whiteSpace=wrap;html=1;" parent="M9_vmGsoGL-ESWC7RVvU-90" vertex="1">
          <mxGeometry y="79" width="190" height="26" as="geometry" />
        </mxCell>
        <mxCell id="M9_vmGsoGL-ESWC7RVvU-93" value="" style="endArrow=none;html=1;rounded=0;strokeWidth=2;entryX=0;entryY=0.5;entryDx=0;entryDy=0;exitX=0.9;exitY=0.008;exitDx=0;exitDy=0;exitPerimeter=0;" parent="M9_vmGsoGL-ESWC7RVvU-1" source="M9_vmGsoGL-ESWC7RVvU-2" edge="1">
          <mxGeometry width="50" height="50" relative="1" as="geometry">
            <mxPoint x="185" y="779" as="sourcePoint" />
            <mxPoint x="325" y="854" as="targetPoint" />
            <Array as="points">
              <mxPoint x="224" y="630" />
              <mxPoint x="257" y="630" />
              <mxPoint x="257" y="854" />
            </Array>
          </mxGeometry>
        </mxCell>
        <mxCell id="M9_vmGsoGL-ESWC7RVvU-94" value="&lt;b&gt;1&lt;/b&gt;" style="text;html=1;align=center;verticalAlign=middle;whiteSpace=wrap;rounded=0;" parent="M9_vmGsoGL-ESWC7RVvU-1" vertex="1">
          <mxGeometry x="236" y="631" width="60" height="30" as="geometry" />
        </mxCell>
        <mxCell id="M9_vmGsoGL-ESWC7RVvU-95" value="" style="endArrow=open;html=1;rounded=0;entryX=-0.012;entryY=0.091;entryDx=0;entryDy=0;entryPerimeter=0;strokeWidth=2;endFill=0;endSize=12;exitX=1;exitY=0.5;exitDx=0;exitDy=0;" parent="M9_vmGsoGL-ESWC7RVvU-1" target="M9_vmGsoGL-ESWC7RVvU-84" edge="1">
          <mxGeometry width="50" height="50" relative="1" as="geometry">
            <mxPoint x="515" y="854" as="sourcePoint" />
            <mxPoint x="664" y="747" as="targetPoint" />
            <Array as="points">
              <mxPoint x="824" y="854" />
              <mxPoint x="824" y="812" />
            </Array>
          </mxGeometry>
        </mxCell>
        <mxCell id="M9_vmGsoGL-ESWC7RVvU-96" value="&lt;b&gt;M&lt;/b&gt;" style="text;html=1;align=center;verticalAlign=middle;whiteSpace=wrap;rounded=0;" parent="M9_vmGsoGL-ESWC7RVvU-1" vertex="1">
          <mxGeometry x="824" y="784" width="60" height="30" as="geometry" />
        </mxCell>
        <mxCell id="SKzZ09A0uKS9BfZJdiWD-0" value="&lt;b&gt;&lt;font style=&quot;font-size: 16px;&quot;&gt;MySQL/ Postgres&lt;/font&gt;&lt;/b&gt;" style="text;html=1;align=center;verticalAlign=middle;whiteSpace=wrap;rounded=0;" parent="M9_vmGsoGL-ESWC7RVvU-1" vertex="1">
          <mxGeometry x="95" y="183" width="60" height="30" as="geometry" />
        </mxCell>
        <mxCell id="aZIJrkIfiDhJ2LYLfrsV-0" value="" style="endArrow=open;endFill=0;endSize=12;html=1;rounded=0;exitX=1;exitY=0.5;exitDx=0;exitDy=0;strokeWidth=2;" edge="1" parent="M9_vmGsoGL-ESWC7RVvU-1" source="M9_vmGsoGL-ESWC7RVvU-88">
          <mxGeometry width="160" relative="1" as="geometry">
            <mxPoint x="1075" y="925" as="sourcePoint" />
            <mxPoint x="934" y="85" as="targetPoint" />
            <Array as="points">
              <mxPoint x="1080" y="934" />
              <mxPoint x="1080" y="85" />
            </Array>
          </mxGeometry>
        </mxCell>
        <mxCell id="aZIJrkIfiDhJ2LYLfrsV-1" value="&lt;b&gt;M&lt;/b&gt;" style="text;html=1;align=center;verticalAlign=middle;whiteSpace=wrap;rounded=0;" vertex="1" parent="M9_vmGsoGL-ESWC7RVvU-1">
          <mxGeometry x="1031" y="905" width="60" height="30" as="geometry" />
        </mxCell>
      </root>
    </mxGraphModel>
  </diagram>
  <diagram name="uml-diagram-dbs-no-ind-colors" id="rbNbrucF_lTTRoVpAV3T">
    <mxGraphModel dx="2049" dy="1203" grid="1" gridSize="10" guides="1" tooltips="1" connect="1" arrows="1" fold="1" page="1" pageScale="1" pageWidth="1169" pageHeight="827" math="0" shadow="0">
      <root>
        <mxCell id="zEsn_sN7hDqRxplZQd_U-0" />
        <mxCell id="zEsn_sN7hDqRxplZQd_U-1" parent="zEsn_sN7hDqRxplZQd_U-0" />
        <mxCell id="zEsn_sN7hDqRxplZQd_U-2" value="Person" style="swimlane;fontStyle=0;childLayout=stackLayout;horizontal=1;startSize=25;fillColor=#e1d5e7;horizontalStack=0;resizeParent=1;resizeParentMax=0;resizeLast=0;collapsible=1;marginBottom=0;whiteSpace=wrap;html=1;strokeWidth=2;strokeColor=#9673a6;" parent="zEsn_sN7hDqRxplZQd_U-1" vertex="1">
          <mxGeometry x="89" y="649" width="150" height="155" as="geometry" />
        </mxCell>
        <mxCell id="zEsn_sN7hDqRxplZQd_U-3" value="elementId: string&amp;nbsp; &amp;lt;pk&amp;gt;" style="text;strokeColor=none;fillColor=none;align=left;verticalAlign=top;spacingLeft=4;spacingRight=4;overflow=hidden;rotatable=0;points=[[0,0.5],[1,0.5]];portConstraint=eastwest;whiteSpace=wrap;html=1;strokeWidth=2;" parent="zEsn_sN7hDqRxplZQd_U-2" vertex="1">
          <mxGeometry y="25" width="150" height="26" as="geometry" />
        </mxCell>
        <mxCell id="zEsn_sN7hDqRxplZQd_U-4" value="person_id: integer" style="text;strokeColor=none;fillColor=none;align=left;verticalAlign=top;spacingLeft=4;spacingRight=4;overflow=hidden;rotatable=0;points=[[0,0.5],[1,0.5]];portConstraint=eastwest;whiteSpace=wrap;html=1;strokeWidth=2;labelBackgroundColor=none;gradientColor=none;labelBorderColor=none;" parent="zEsn_sN7hDqRxplZQd_U-2" vertex="1">
          <mxGeometry y="51" width="150" height="26" as="geometry" />
        </mxCell>
        <mxCell id="zEsn_sN7hDqRxplZQd_U-5" value="first_n&lt;span style=&quot;background-color: initial;&quot;&gt;ame: string&lt;/span&gt;&lt;div&gt;&lt;div&gt;&lt;br&gt;&lt;/div&gt;&lt;/div&gt;" style="text;strokeColor=none;fillColor=none;align=left;verticalAlign=top;spacingLeft=4;spacingRight=4;overflow=hidden;rotatable=0;points=[[0,0.5],[1,0.5]];portConstraint=eastwest;whiteSpace=wrap;html=1;" parent="zEsn_sN7hDqRxplZQd_U-2" vertex="1">
          <mxGeometry y="77" width="150" height="26" as="geometry" />
        </mxCell>
        <mxCell id="zEsn_sN7hDqRxplZQd_U-6" value="last_name: string" style="text;strokeColor=none;fillColor=none;align=left;verticalAlign=top;spacingLeft=4;spacingRight=4;overflow=hidden;rotatable=0;points=[[0,0.5],[1,0.5]];portConstraint=eastwest;whiteSpace=wrap;html=1;" parent="zEsn_sN7hDqRxplZQd_U-2" vertex="1">
          <mxGeometry y="103" width="150" height="26" as="geometry" />
        </mxCell>
        <mxCell id="zEsn_sN7hDqRxplZQd_U-7" value="mail: string&lt;div&gt;&lt;br&gt;&lt;/div&gt;" style="text;strokeColor=none;fillColor=none;align=left;verticalAlign=top;spacingLeft=4;spacingRight=4;overflow=hidden;rotatable=0;points=[[0,0.5],[1,0.5]];portConstraint=eastwest;whiteSpace=wrap;html=1;" parent="zEsn_sN7hDqRxplZQd_U-2" vertex="1">
          <mxGeometry y="129" width="150" height="26" as="geometry" />
        </mxCell>
        <mxCell id="zEsn_sN7hDqRxplZQd_U-8" value="Customer" style="swimlane;fontStyle=0;childLayout=stackLayout;horizontal=1;startSize=24;fillColor=#dae8fc;horizontalStack=0;resizeParent=1;resizeParentMax=0;resizeLast=0;collapsible=1;marginBottom=0;whiteSpace=wrap;html=1;strokeWidth=2;strokeColor=#6c8ebf;" parent="zEsn_sN7hDqRxplZQd_U-1" vertex="1">
          <mxGeometry x="223" y="70" width="160" height="128" as="geometry" />
        </mxCell>
        <mxCell id="zEsn_sN7hDqRxplZQd_U-9" value="customer_id: bigint&amp;nbsp; &amp;lt;pk&amp;gt;&lt;div&gt;&lt;br&gt;&lt;/div&gt;" style="text;strokeColor=none;fillColor=none;align=left;verticalAlign=top;spacingLeft=4;spacingRight=4;overflow=hidden;rotatable=0;points=[[0,0.5],[1,0.5]];portConstraint=eastwest;whiteSpace=wrap;html=1;strokeWidth=2;labelBackgroundColor=none;" parent="zEsn_sN7hDqRxplZQd_U-8" vertex="1">
          <mxGeometry y="24" width="160" height="26" as="geometry" />
        </mxCell>
        <mxCell id="zEsn_sN7hDqRxplZQd_U-10" value="first_n&lt;span style=&quot;background-color: initial;&quot;&gt;ame: text&lt;/span&gt;&lt;div&gt;&lt;div&gt;&lt;br&gt;&lt;/div&gt;&lt;/div&gt;" style="text;strokeColor=none;fillColor=none;align=left;verticalAlign=top;spacingLeft=4;spacingRight=4;overflow=hidden;rotatable=0;points=[[0,0.5],[1,0.5]];portConstraint=eastwest;whiteSpace=wrap;html=1;" parent="zEsn_sN7hDqRxplZQd_U-8" vertex="1">
          <mxGeometry y="50" width="160" height="26" as="geometry" />
        </mxCell>
        <mxCell id="zEsn_sN7hDqRxplZQd_U-11" value="last_name: text" style="text;strokeColor=none;fillColor=none;align=left;verticalAlign=top;spacingLeft=4;spacingRight=4;overflow=hidden;rotatable=0;points=[[0,0.5],[1,0.5]];portConstraint=eastwest;whiteSpace=wrap;html=1;" parent="zEsn_sN7hDqRxplZQd_U-8" vertex="1">
          <mxGeometry y="76" width="160" height="26" as="geometry" />
        </mxCell>
        <mxCell id="zEsn_sN7hDqRxplZQd_U-12" value="mail: text&lt;div&gt;&lt;br&gt;&lt;/div&gt;" style="text;strokeColor=none;fillColor=none;align=left;verticalAlign=top;spacingLeft=4;spacingRight=4;overflow=hidden;rotatable=0;points=[[0,0.5],[1,0.5]];portConstraint=eastwest;whiteSpace=wrap;html=1;" parent="zEsn_sN7hDqRxplZQd_U-8" vertex="1">
          <mxGeometry y="102" width="160" height="26" as="geometry" />
        </mxCell>
        <mxCell id="zEsn_sN7hDqRxplZQd_U-13" value="Post" style="swimlane;fontStyle=0;childLayout=stackLayout;horizontal=1;startSize=25;fillColor=#e1d5e7;horizontalStack=0;resizeParent=1;resizeParentMax=0;resizeLast=0;collapsible=1;marginBottom=0;whiteSpace=wrap;html=1;strokeWidth=2;strokeColor=#9673a6;" parent="zEsn_sN7hDqRxplZQd_U-1" vertex="1">
          <mxGeometry x="654" y="716" width="140" height="129" as="geometry" />
        </mxCell>
        <mxCell id="zEsn_sN7hDqRxplZQd_U-14" value="elementId: string&amp;nbsp; &amp;lt;pk&amp;gt;" style="text;strokeColor=none;fillColor=none;align=left;verticalAlign=top;spacingLeft=4;spacingRight=4;overflow=hidden;rotatable=0;points=[[0,0.5],[1,0.5]];portConstraint=eastwest;whiteSpace=wrap;html=1;strokeWidth=2;" parent="zEsn_sN7hDqRxplZQd_U-13" vertex="1">
          <mxGeometry y="25" width="140" height="26" as="geometry" />
        </mxCell>
        <mxCell id="zEsn_sN7hDqRxplZQd_U-15" value="post_id: integer" style="text;strokeColor=none;fillColor=none;align=left;verticalAlign=top;spacingLeft=4;spacingRight=4;overflow=hidden;rotatable=0;points=[[0,0.5],[1,0.5]];portConstraint=eastwest;whiteSpace=wrap;html=1;strokeWidth=2;" parent="zEsn_sN7hDqRxplZQd_U-13" vertex="1">
          <mxGeometry y="51" width="140" height="26" as="geometry" />
        </mxCell>
        <mxCell id="zEsn_sN7hDqRxplZQd_U-16" value="&lt;div&gt;content: string&lt;/div&gt;" style="text;strokeColor=none;fillColor=none;align=left;verticalAlign=top;spacingLeft=4;spacingRight=4;overflow=hidden;rotatable=0;points=[[0,0.5],[1,0.5]];portConstraint=eastwest;whiteSpace=wrap;html=1;" parent="zEsn_sN7hDqRxplZQd_U-13" vertex="1">
          <mxGeometry y="77" width="140" height="26" as="geometry" />
        </mxCell>
        <mxCell id="zEsn_sN7hDqRxplZQd_U-17" value="lengh: int" style="text;strokeColor=none;fillColor=none;align=left;verticalAlign=top;spacingLeft=4;spacingRight=4;overflow=hidden;rotatable=0;points=[[0,0.5],[1,0.5]];portConstraint=eastwest;whiteSpace=wrap;html=1;" parent="zEsn_sN7hDqRxplZQd_U-13" vertex="1">
          <mxGeometry y="103" width="140" height="26" as="geometry" />
        </mxCell>
        <mxCell id="zEsn_sN7hDqRxplZQd_U-18" value="Order" style="swimlane;fontStyle=0;childLayout=stackLayout;horizontal=1;startSize=28;fillColor=#d5e8d4;horizontalStack=0;resizeParent=1;resizeParentMax=0;resizeLast=0;collapsible=1;marginBottom=0;whiteSpace=wrap;html=1;strokeWidth=2;strokeColor=#82b366;" parent="zEsn_sN7hDqRxplZQd_U-1" vertex="1">
          <mxGeometry x="492" y="273" width="170" height="132" as="geometry" />
        </mxCell>
        <mxCell id="zEsn_sN7hDqRxplZQd_U-19" value="&lt;div&gt;_id: objectId&amp;nbsp; &amp;lt;pk&amp;gt;&lt;/div&gt;" style="text;strokeColor=none;fillColor=none;align=left;verticalAlign=top;spacingLeft=4;spacingRight=4;overflow=hidden;rotatable=0;points=[[0,0.5],[1,0.5]];portConstraint=eastwest;whiteSpace=wrap;html=1;" parent="zEsn_sN7hDqRxplZQd_U-18" vertex="1">
          <mxGeometry y="28" width="170" height="26" as="geometry" />
        </mxCell>
        <mxCell id="zEsn_sN7hDqRxplZQd_U-20" value="order_id: long" style="text;strokeColor=none;fillColor=none;align=left;verticalAlign=top;spacingLeft=4;spacingRight=4;overflow=hidden;rotatable=0;points=[[0,0.5],[1,0.5]];portConstraint=eastwest;whiteSpace=wrap;html=1;strokeWidth=2;" parent="zEsn_sN7hDqRxplZQd_U-18" vertex="1">
          <mxGeometry y="54" width="170" height="26" as="geometry" />
        </mxCell>
        <mxCell id="zEsn_sN7hDqRxplZQd_U-21" value="&lt;div&gt;customer_id: long&amp;nbsp;&amp;nbsp;&amp;lt;fk&amp;gt;&lt;/div&gt;" style="text;strokeColor=none;fillColor=none;align=left;verticalAlign=top;spacingLeft=4;spacingRight=4;overflow=hidden;rotatable=0;points=[[0,0.5],[1,0.5]];portConstraint=eastwest;whiteSpace=wrap;html=1;" parent="zEsn_sN7hDqRxplZQd_U-18" vertex="1">
          <mxGeometry y="80" width="170" height="26" as="geometry" />
        </mxCell>
        <mxCell id="zEsn_sN7hDqRxplZQd_U-22" value="total_price: double" style="text;strokeColor=none;fillColor=none;align=left;verticalAlign=top;spacingLeft=4;spacingRight=4;overflow=hidden;rotatable=0;points=[[0,0.5],[1,0.5]];portConstraint=eastwest;whiteSpace=wrap;html=1;" parent="zEsn_sN7hDqRxplZQd_U-18" vertex="1">
          <mxGeometry y="106" width="170" height="26" as="geometry" />
        </mxCell>
        <mxCell id="zEsn_sN7hDqRxplZQd_U-23" value="order_line" style="swimlane;fontStyle=0;childLayout=stackLayout;horizontal=1;startSize=26;fillColor=#d5e8d4;horizontalStack=0;resizeParent=1;resizeParentMax=0;resizeLast=0;collapsible=1;marginBottom=0;whiteSpace=wrap;html=1;strokeWidth=2;strokeColor=#82b366;dashed=1;dashPattern=1 2;" parent="zEsn_sN7hDqRxplZQd_U-1" vertex="1">
          <mxGeometry x="784" y="274" width="170" height="130" as="geometry" />
        </mxCell>
        <mxCell id="zEsn_sN7hDqRxplZQd_U-24" value="product_id: int32" style="text;strokeColor=none;fillColor=none;align=left;verticalAlign=top;spacingLeft=4;spacingRight=4;overflow=hidden;rotatable=0;points=[[0,0.5],[1,0.5]];portConstraint=eastwest;whiteSpace=wrap;html=1;strokeWidth=2;" parent="zEsn_sN7hDqRxplZQd_U-23" vertex="1">
          <mxGeometry y="26" width="170" height="26" as="geometry" />
        </mxCell>
        <mxCell id="zEsn_sN7hDqRxplZQd_U-25" value="&lt;div&gt;asin: string&lt;/div&gt;" style="text;strokeColor=none;fillColor=none;align=left;verticalAlign=top;spacingLeft=4;spacingRight=4;overflow=hidden;rotatable=0;points=[[0,0.5],[1,0.5]];portConstraint=eastwest;whiteSpace=wrap;html=1;" parent="zEsn_sN7hDqRxplZQd_U-23" vertex="1">
          <mxGeometry y="52" width="170" height="26" as="geometry" />
        </mxCell>
        <mxCell id="zEsn_sN7hDqRxplZQd_U-26" value="&lt;div&gt;product_title: string&lt;/div&gt;" style="text;strokeColor=none;fillColor=none;align=left;verticalAlign=top;spacingLeft=4;spacingRight=4;overflow=hidden;rotatable=0;points=[[0,0.5],[1,0.5]];portConstraint=eastwest;whiteSpace=wrap;html=1;" parent="zEsn_sN7hDqRxplZQd_U-23" vertex="1">
          <mxGeometry y="78" width="170" height="26" as="geometry" />
        </mxCell>
        <mxCell id="zEsn_sN7hDqRxplZQd_U-27" value="price: double" style="text;strokeColor=none;fillColor=none;align=left;verticalAlign=top;spacingLeft=4;spacingRight=4;overflow=hidden;rotatable=0;points=[[0,0.5],[1,0.5]];portConstraint=eastwest;whiteSpace=wrap;html=1;" parent="zEsn_sN7hDqRxplZQd_U-23" vertex="1">
          <mxGeometry y="104" width="170" height="26" as="geometry" />
        </mxCell>
        <mxCell id="zEsn_sN7hDqRxplZQd_U-28" value="" style="endArrow=diamondThin;endFill=1;endSize=24;html=1;rounded=0;strokeWidth=2;entryX=0.994;entryY=0.1;entryDx=0;entryDy=0;entryPerimeter=0;exitX=-0.006;exitY=0.092;exitDx=0;exitDy=0;exitPerimeter=0;" parent="zEsn_sN7hDqRxplZQd_U-1" source="zEsn_sN7hDqRxplZQd_U-23" target="zEsn_sN7hDqRxplZQd_U-18" edge="1">
          <mxGeometry width="160" relative="1" as="geometry">
            <mxPoint x="754" y="262" as="sourcePoint" />
            <mxPoint x="684" y="272" as="targetPoint" />
          </mxGeometry>
        </mxCell>
        <mxCell id="zEsn_sN7hDqRxplZQd_U-29" value="Invoice" style="swimlane;fontStyle=0;childLayout=stackLayout;horizontal=1;startSize=25;fillColor=#dae8fc;horizontalStack=0;resizeParent=1;resizeParentMax=0;resizeLast=0;collapsible=1;marginBottom=0;whiteSpace=wrap;html=1;strokeWidth=2;strokeColor=#6c8ebf;" parent="zEsn_sN7hDqRxplZQd_U-1" vertex="1">
          <mxGeometry x="504" y="70" width="150" height="129" as="geometry" />
        </mxCell>
        <mxCell id="zEsn_sN7hDqRxplZQd_U-30" value="order_id: bigint&amp;nbsp; &amp;lt;pk&amp;gt;" style="text;strokeColor=none;fillColor=none;align=left;verticalAlign=top;spacingLeft=4;spacingRight=4;overflow=hidden;rotatable=0;points=[[0,0.5],[1,0.5]];portConstraint=eastwest;whiteSpace=wrap;html=1;strokeWidth=2;" parent="zEsn_sN7hDqRxplZQd_U-29" vertex="1">
          <mxGeometry y="25" width="150" height="26" as="geometry" />
        </mxCell>
        <mxCell id="zEsn_sN7hDqRxplZQd_U-31" value="&lt;div&gt;customer_id: bigint&amp;nbsp;&amp;nbsp;&amp;lt;fk&amp;gt;&lt;/div&gt;" style="text;strokeColor=none;fillColor=none;align=left;verticalAlign=top;spacingLeft=4;spacingRight=4;overflow=hidden;rotatable=0;points=[[0,0.5],[1,0.5]];portConstraint=eastwest;whiteSpace=wrap;html=1;gradientColor=none;" parent="zEsn_sN7hDqRxplZQd_U-29" vertex="1">
          <mxGeometry y="51" width="150" height="26" as="geometry" />
        </mxCell>
        <mxCell id="zEsn_sN7hDqRxplZQd_U-32" value="total_price: float" style="text;strokeColor=none;fillColor=none;align=left;verticalAlign=top;spacingLeft=4;spacingRight=4;overflow=hidden;rotatable=0;points=[[0,0.5],[1,0.5]];portConstraint=eastwest;whiteSpace=wrap;html=1;" parent="zEsn_sN7hDqRxplZQd_U-29" vertex="1">
          <mxGeometry y="77" width="150" height="26" as="geometry" />
        </mxCell>
        <mxCell id="zEsn_sN7hDqRxplZQd_U-33" value="&lt;div&gt;number_of_items: int&lt;/div&gt;" style="text;strokeColor=none;fillColor=none;align=left;verticalAlign=top;spacingLeft=4;spacingRight=4;overflow=hidden;rotatable=0;points=[[0,0.5],[1,0.5]];portConstraint=eastwest;whiteSpace=wrap;html=1;" parent="zEsn_sN7hDqRxplZQd_U-29" vertex="1">
          <mxGeometry y="103" width="150" height="26" as="geometry" />
        </mxCell>
        <mxCell id="zEsn_sN7hDqRxplZQd_U-34" value="Vendor" style="swimlane;fontStyle=0;childLayout=stackLayout;horizontal=1;startSize=25;fillColor=#dae8fc;horizontalStack=0;resizeParent=1;resizeParentMax=0;resizeLast=0;collapsible=1;marginBottom=0;whiteSpace=wrap;html=1;strokeWidth=2;strokeColor=#6c8ebf;" parent="zEsn_sN7hDqRxplZQd_U-1" vertex="1">
          <mxGeometry x="794" y="70" width="140" height="103" as="geometry" />
        </mxCell>
        <mxCell id="zEsn_sN7hDqRxplZQd_U-35" value="vendor_id: int&amp;nbsp; &amp;lt;pk&amp;gt;" style="text;strokeColor=none;fillColor=none;align=left;verticalAlign=top;spacingLeft=4;spacingRight=4;overflow=hidden;rotatable=0;points=[[0,0.5],[1,0.5]];portConstraint=eastwest;whiteSpace=wrap;html=1;strokeWidth=2;" parent="zEsn_sN7hDqRxplZQd_U-34" vertex="1">
          <mxGeometry y="25" width="140" height="26" as="geometry" />
        </mxCell>
        <mxCell id="zEsn_sN7hDqRxplZQd_U-36" value="&lt;div&gt;&lt;div&gt;vendor: varchar(32)&lt;/div&gt;&lt;/div&gt;" style="text;strokeColor=none;fillColor=none;align=left;verticalAlign=top;spacingLeft=4;spacingRight=4;overflow=hidden;rotatable=0;points=[[0,0.5],[1,0.5]];portConstraint=eastwest;whiteSpace=wrap;html=1;" parent="zEsn_sN7hDqRxplZQd_U-34" vertex="1">
          <mxGeometry y="51" width="140" height="26" as="geometry" />
        </mxCell>
        <mxCell id="zEsn_sN7hDqRxplZQd_U-37" value="country: text" style="text;strokeColor=none;fillColor=none;align=left;verticalAlign=top;spacingLeft=4;spacingRight=4;overflow=hidden;rotatable=0;points=[[0,0.5],[1,0.5]];portConstraint=eastwest;whiteSpace=wrap;html=1;" parent="zEsn_sN7hDqRxplZQd_U-34" vertex="1">
          <mxGeometry y="77" width="140" height="26" as="geometry" />
        </mxCell>
        <mxCell id="zEsn_sN7hDqRxplZQd_U-38" value="Tag" style="swimlane;fontStyle=0;childLayout=stackLayout;horizontal=1;startSize=23;fillColor=#e1d5e7;horizontalStack=0;resizeParent=1;resizeParentMax=0;resizeLast=0;collapsible=1;marginBottom=0;whiteSpace=wrap;html=1;strokeWidth=2;strokeColor=#9673a6;" parent="zEsn_sN7hDqRxplZQd_U-1" vertex="1">
          <mxGeometry x="654" y="570" width="140" height="127" as="geometry" />
        </mxCell>
        <mxCell id="zEsn_sN7hDqRxplZQd_U-39" value="elementId: string&amp;nbsp; &amp;lt;pk&amp;gt;" style="text;strokeColor=none;fillColor=none;align=left;verticalAlign=top;spacingLeft=4;spacingRight=4;overflow=hidden;rotatable=0;points=[[0,0.5],[1,0.5]];portConstraint=eastwest;whiteSpace=wrap;html=1;strokeWidth=2;" parent="zEsn_sN7hDqRxplZQd_U-38" vertex="1">
          <mxGeometry y="23" width="140" height="26" as="geometry" />
        </mxCell>
        <mxCell id="zEsn_sN7hDqRxplZQd_U-40" value="tag_id: integer" style="text;strokeColor=none;fillColor=none;align=left;verticalAlign=top;spacingLeft=4;spacingRight=4;overflow=hidden;rotatable=0;points=[[0,0.5],[1,0.5]];portConstraint=eastwest;whiteSpace=wrap;html=1;strokeWidth=2;" parent="zEsn_sN7hDqRxplZQd_U-38" vertex="1">
          <mxGeometry y="49" width="140" height="26" as="geometry" />
        </mxCell>
        <mxCell id="zEsn_sN7hDqRxplZQd_U-41" value="vendors: string[ ]" style="text;strokeColor=none;fillColor=none;align=left;verticalAlign=top;spacingLeft=4;spacingRight=4;overflow=hidden;rotatable=0;points=[[0,0.5],[1,0.5]];portConstraint=eastwest;whiteSpace=wrap;html=1;" parent="zEsn_sN7hDqRxplZQd_U-38" vertex="1">
          <mxGeometry y="75" width="140" height="26" as="geometry" />
        </mxCell>
        <mxCell id="zEsn_sN7hDqRxplZQd_U-42" value="&lt;div&gt;name: string&lt;/div&gt;" style="text;strokeColor=none;fillColor=none;align=left;verticalAlign=top;spacingLeft=4;spacingRight=4;overflow=hidden;rotatable=0;points=[[0,0.5],[1,0.5]];portConstraint=eastwest;whiteSpace=wrap;html=1;" parent="zEsn_sN7hDqRxplZQd_U-38" vertex="1">
          <mxGeometry y="101" width="140" height="26" as="geometry" />
        </mxCell>
        <mxCell id="zEsn_sN7hDqRxplZQd_U-43" value="HAS_INTEREST" style="swimlane;fontStyle=0;childLayout=stackLayout;horizontal=1;startSize=29;fillColor=#e1d5e7;horizontalStack=0;resizeParent=1;resizeParentMax=0;resizeLast=0;collapsible=1;marginBottom=0;whiteSpace=wrap;html=1;strokeWidth=2;strokeColor=#9673a6;" parent="zEsn_sN7hDqRxplZQd_U-1" vertex="1">
          <mxGeometry x="325" y="568" width="190" height="107" as="geometry" />
        </mxCell>
        <mxCell id="zEsn_sN7hDqRxplZQd_U-44" value="elementId: string&amp;nbsp; &amp;lt;pk&amp;gt;" style="text;strokeColor=none;fillColor=none;align=left;verticalAlign=top;spacingLeft=4;spacingRight=4;overflow=hidden;rotatable=0;points=[[0,0.5],[1,0.5]];portConstraint=eastwest;whiteSpace=wrap;html=1;strokeWidth=2;" parent="zEsn_sN7hDqRxplZQd_U-43" vertex="1">
          <mxGeometry y="29" width="190" height="26" as="geometry" />
        </mxCell>
        <mxCell id="zEsn_sN7hDqRxplZQd_U-45" value="&lt;div&gt;&lt;div&gt;startNodeElementId: string&amp;nbsp;&amp;nbsp;&amp;lt;fk&amp;gt;&lt;/div&gt;&lt;/div&gt;" style="text;strokeColor=none;fillColor=none;align=left;verticalAlign=top;spacingLeft=4;spacingRight=4;overflow=hidden;rotatable=0;points=[[0,0.5],[1,0.5]];portConstraint=eastwest;whiteSpace=wrap;html=1;" parent="zEsn_sN7hDqRxplZQd_U-43" vertex="1">
          <mxGeometry y="55" width="190" height="26" as="geometry" />
        </mxCell>
        <mxCell id="zEsn_sN7hDqRxplZQd_U-46" value="&lt;div&gt;&lt;div&gt;endNodeElementId: string&amp;nbsp;&amp;nbsp;&amp;lt;fk&amp;gt;&lt;/div&gt;&lt;/div&gt;" style="text;strokeColor=none;fillColor=none;align=left;verticalAlign=top;spacingLeft=4;spacingRight=4;overflow=hidden;rotatable=0;points=[[0,0.5],[1,0.5]];portConstraint=eastwest;whiteSpace=wrap;html=1;" parent="zEsn_sN7hDqRxplZQd_U-43" vertex="1">
          <mxGeometry y="81" width="190" height="26" as="geometry" />
        </mxCell>
        <mxCell id="zEsn_sN7hDqRxplZQd_U-47" value="WROTE" style="swimlane;fontStyle=0;childLayout=stackLayout;horizontal=1;startSize=29;fillColor=#e1d5e7;horizontalStack=0;resizeParent=1;resizeParentMax=0;resizeLast=0;collapsible=1;marginBottom=0;whiteSpace=wrap;html=1;strokeWidth=2;strokeColor=#9673a6;" parent="zEsn_sN7hDqRxplZQd_U-1" vertex="1">
          <mxGeometry x="325" y="695" width="190" height="107" as="geometry" />
        </mxCell>
        <mxCell id="zEsn_sN7hDqRxplZQd_U-48" value="elementId: string&amp;nbsp; &amp;lt;pk&amp;gt;" style="text;strokeColor=none;fillColor=none;align=left;verticalAlign=top;spacingLeft=4;spacingRight=4;overflow=hidden;rotatable=0;points=[[0,0.5],[1,0.5]];portConstraint=eastwest;whiteSpace=wrap;html=1;strokeWidth=2;" parent="zEsn_sN7hDqRxplZQd_U-47" vertex="1">
          <mxGeometry y="29" width="190" height="26" as="geometry" />
        </mxCell>
        <mxCell id="zEsn_sN7hDqRxplZQd_U-49" value="&lt;div&gt;&lt;div&gt;startNodeElementId: string&amp;nbsp;&amp;nbsp;&amp;lt;fk&amp;gt;&lt;/div&gt;&lt;/div&gt;" style="text;strokeColor=none;fillColor=none;align=left;verticalAlign=top;spacingLeft=4;spacingRight=4;overflow=hidden;rotatable=0;points=[[0,0.5],[1,0.5]];portConstraint=eastwest;whiteSpace=wrap;html=1;" parent="zEsn_sN7hDqRxplZQd_U-47" vertex="1">
          <mxGeometry y="55" width="190" height="26" as="geometry" />
        </mxCell>
        <mxCell id="zEsn_sN7hDqRxplZQd_U-50" value="&lt;div&gt;&lt;div&gt;endNodeElementId: string&amp;nbsp;&amp;nbsp;&amp;lt;fk&amp;gt;&lt;/div&gt;&lt;/div&gt;" style="text;strokeColor=none;fillColor=none;align=left;verticalAlign=top;spacingLeft=4;spacingRight=4;overflow=hidden;rotatable=0;points=[[0,0.5],[1,0.5]];portConstraint=eastwest;whiteSpace=wrap;html=1;" parent="zEsn_sN7hDqRxplZQd_U-47" vertex="1">
          <mxGeometry y="81" width="190" height="26" as="geometry" />
        </mxCell>
        <mxCell id="zEsn_sN7hDqRxplZQd_U-51" value="" style="endArrow=open;endFill=0;endSize=12;html=1;rounded=0;exitX=1;exitY=0.5;exitDx=0;exitDy=0;strokeWidth=2;entryX=1.011;entryY=0.134;entryDx=0;entryDy=0;entryPerimeter=0;" parent="zEsn_sN7hDqRxplZQd_U-1" source="zEsn_sN7hDqRxplZQd_U-84" target="zEsn_sN7hDqRxplZQd_U-34" edge="1">
          <mxGeometry width="160" relative="1" as="geometry">
            <mxPoint x="954" y="417" as="sourcePoint" />
            <mxPoint x="960" y="70" as="targetPoint" />
            <Array as="points">
              <mxPoint x="1014" y="461" />
              <mxPoint x="1014" y="85" />
            </Array>
          </mxGeometry>
        </mxCell>
        <mxCell id="zEsn_sN7hDqRxplZQd_U-52" value="" style="endArrow=none;html=1;rounded=0;exitX=0.5;exitY=0;exitDx=0;exitDy=0;entryX=0;entryY=0.5;entryDx=0;entryDy=0;strokeWidth=2;" parent="zEsn_sN7hDqRxplZQd_U-1" source="zEsn_sN7hDqRxplZQd_U-2" target="zEsn_sN7hDqRxplZQd_U-44" edge="1">
          <mxGeometry width="50" height="50" relative="1" as="geometry">
            <mxPoint x="161" y="645" as="sourcePoint" />
            <mxPoint x="293" y="607.5" as="targetPoint" />
            <Array as="points">
              <mxPoint x="164" y="610" />
            </Array>
          </mxGeometry>
        </mxCell>
        <mxCell id="zEsn_sN7hDqRxplZQd_U-53" value="" style="endArrow=open;html=1;rounded=0;exitX=1;exitY=0.5;exitDx=0;exitDy=0;entryX=-0.021;entryY=0.135;entryDx=0;entryDy=0;entryPerimeter=0;strokeWidth=2;endFill=0;endSize=12;" parent="zEsn_sN7hDqRxplZQd_U-1" source="zEsn_sN7hDqRxplZQd_U-45" target="zEsn_sN7hDqRxplZQd_U-38" edge="1">
          <mxGeometry width="50" height="50" relative="1" as="geometry">
            <mxPoint x="604" y="495" as="sourcePoint" />
            <mxPoint x="654" y="445" as="targetPoint" />
            <Array as="points">
              <mxPoint x="574" y="636" />
              <mxPoint x="574" y="587" />
            </Array>
          </mxGeometry>
        </mxCell>
        <mxCell id="zEsn_sN7hDqRxplZQd_U-54" value="" style="endArrow=none;html=1;rounded=0;strokeWidth=2;entryX=0;entryY=0.5;entryDx=0;entryDy=0;exitX=0.75;exitY=0;exitDx=0;exitDy=0;" parent="zEsn_sN7hDqRxplZQd_U-1" source="zEsn_sN7hDqRxplZQd_U-2" edge="1">
          <mxGeometry width="50" height="50" relative="1" as="geometry">
            <mxPoint x="184" y="630" as="sourcePoint" />
            <mxPoint x="325" y="734" as="targetPoint" />
            <Array as="points">
              <mxPoint x="201" y="620" />
              <mxPoint x="294" y="620" />
              <mxPoint x="294" y="734" />
            </Array>
          </mxGeometry>
        </mxCell>
        <mxCell id="zEsn_sN7hDqRxplZQd_U-55" value="" style="endArrow=open;html=1;rounded=0;entryX=0.007;entryY=0.163;entryDx=0;entryDy=0;strokeWidth=2;endFill=0;endSize=12;exitX=1;exitY=0.5;exitDx=0;exitDy=0;entryPerimeter=0;" parent="zEsn_sN7hDqRxplZQd_U-1" source="zEsn_sN7hDqRxplZQd_U-48" target="zEsn_sN7hDqRxplZQd_U-13" edge="1">
          <mxGeometry width="50" height="50" relative="1" as="geometry">
            <mxPoint x="515" y="737" as="sourcePoint" />
            <mxPoint x="681" y="709.5" as="targetPoint" />
            <Array as="points" />
          </mxGeometry>
        </mxCell>
        <mxCell id="zEsn_sN7hDqRxplZQd_U-56" value="" style="endArrow=none;html=1;rounded=0;strokeWidth=2;endFill=0;endSize=12;entryX=0;entryY=0.5;entryDx=0;entryDy=0;startArrow=open;startFill=0;startSize=12;exitX=0.25;exitY=0;exitDx=0;exitDy=0;" parent="zEsn_sN7hDqRxplZQd_U-1" source="zEsn_sN7hDqRxplZQd_U-2" target="zEsn_sN7hDqRxplZQd_U-21" edge="1">
          <mxGeometry width="50" height="50" relative="1" as="geometry">
            <mxPoint x="127" y="611" as="sourcePoint" />
            <mxPoint x="454" y="361" as="targetPoint" />
            <Array as="points">
              <mxPoint x="124" y="366" />
            </Array>
          </mxGeometry>
        </mxCell>
        <mxCell id="zEsn_sN7hDqRxplZQd_U-57" value="" style="endArrow=none;html=1;rounded=0;exitX=-0.014;exitY=0.085;exitDx=0;exitDy=0;strokeWidth=2;endFill=0;endSize=12;exitPerimeter=0;entryX=0;entryY=0.5;entryDx=0;entryDy=0;startArrow=open;startFill=0;startSize=12;" parent="zEsn_sN7hDqRxplZQd_U-1" source="zEsn_sN7hDqRxplZQd_U-8" target="zEsn_sN7hDqRxplZQd_U-21" edge="1">
          <mxGeometry width="50" height="50" relative="1" as="geometry">
            <mxPoint x="139" y="616" as="sourcePoint" />
            <mxPoint x="434" y="411" as="targetPoint" />
            <Array as="points">
              <mxPoint x="194" y="80" />
              <mxPoint x="194" y="366" />
            </Array>
          </mxGeometry>
        </mxCell>
        <mxCell id="zEsn_sN7hDqRxplZQd_U-58" value="HAS_TAG" style="swimlane;fontStyle=0;childLayout=stackLayout;horizontal=1;startSize=24;fillColor=#e1d5e7;horizontalStack=0;resizeParent=1;resizeParentMax=0;resizeLast=0;collapsible=1;marginBottom=0;whiteSpace=wrap;html=1;strokeWidth=2;strokeColor=#9673a6;" parent="zEsn_sN7hDqRxplZQd_U-1" vertex="1">
          <mxGeometry x="865" y="631" width="190" height="102" as="geometry" />
        </mxCell>
        <mxCell id="zEsn_sN7hDqRxplZQd_U-59" value="elementId: string&amp;nbsp; &amp;lt;pk&amp;gt;" style="text;strokeColor=none;fillColor=none;align=left;verticalAlign=top;spacingLeft=4;spacingRight=4;overflow=hidden;rotatable=0;points=[[0,0.5],[1,0.5]];portConstraint=eastwest;whiteSpace=wrap;html=1;strokeWidth=2;" parent="zEsn_sN7hDqRxplZQd_U-58" vertex="1">
          <mxGeometry y="24" width="190" height="26" as="geometry" />
        </mxCell>
        <mxCell id="zEsn_sN7hDqRxplZQd_U-60" value="&lt;div&gt;&lt;div&gt;endNodeElementId: string&amp;nbsp;&amp;nbsp;&amp;lt;fk&amp;gt;&lt;/div&gt;&lt;/div&gt;" style="text;strokeColor=none;fillColor=none;align=left;verticalAlign=top;spacingLeft=4;spacingRight=4;overflow=hidden;rotatable=0;points=[[0,0.5],[1,0.5]];portConstraint=eastwest;whiteSpace=wrap;html=1;" parent="zEsn_sN7hDqRxplZQd_U-58" vertex="1">
          <mxGeometry y="50" width="190" height="26" as="geometry" />
        </mxCell>
        <mxCell id="zEsn_sN7hDqRxplZQd_U-61" value="&lt;div&gt;&lt;div&gt;startNodeElementId: string&amp;nbsp;&amp;nbsp;&amp;lt;fk&amp;gt;&lt;/div&gt;&lt;/div&gt;" style="text;strokeColor=none;fillColor=none;align=left;verticalAlign=top;spacingLeft=4;spacingRight=4;overflow=hidden;rotatable=0;points=[[0,0.5],[1,0.5]];portConstraint=eastwest;whiteSpace=wrap;html=1;" parent="zEsn_sN7hDqRxplZQd_U-58" vertex="1">
          <mxGeometry y="76" width="190" height="26" as="geometry" />
        </mxCell>
        <mxCell id="zEsn_sN7hDqRxplZQd_U-62" value="" style="endArrow=none;html=1;rounded=0;strokeWidth=2;" parent="zEsn_sN7hDqRxplZQd_U-1" edge="1">
          <mxGeometry width="50" height="50" relative="1" as="geometry">
            <mxPoint x="794" y="736" as="sourcePoint" />
            <mxPoint x="953" y="736" as="targetPoint" />
            <Array as="points">
              <mxPoint x="834" y="736" />
              <mxPoint x="834" y="761" />
              <mxPoint x="953" y="761" />
            </Array>
          </mxGeometry>
        </mxCell>
        <mxCell id="zEsn_sN7hDqRxplZQd_U-63" value="" style="endArrow=open;html=1;rounded=0;entryX=0.993;entryY=0.115;entryDx=0;entryDy=0;entryPerimeter=0;strokeWidth=2;endFill=0;endSize=12;jumpStyle=arc;exitX=0.468;exitY=-0.029;exitDx=0;exitDy=0;exitPerimeter=0;" parent="zEsn_sN7hDqRxplZQd_U-1" source="zEsn_sN7hDqRxplZQd_U-58" target="zEsn_sN7hDqRxplZQd_U-38" edge="1">
          <mxGeometry width="50" height="50" relative="1" as="geometry">
            <mxPoint x="1054" y="724" as="sourcePoint" />
            <mxPoint x="1251" y="680" as="targetPoint" />
            <Array as="points">
              <mxPoint x="954" y="585" />
            </Array>
          </mxGeometry>
        </mxCell>
        <mxCell id="zEsn_sN7hDqRxplZQd_U-64" value="&lt;b&gt;M&lt;/b&gt;" style="text;html=1;align=center;verticalAlign=middle;whiteSpace=wrap;rounded=0;" parent="zEsn_sN7hDqRxplZQd_U-1" vertex="1">
          <mxGeometry x="155" y="583" width="60" height="30" as="geometry" />
        </mxCell>
        <mxCell id="zEsn_sN7hDqRxplZQd_U-65" value="&lt;b&gt;1&lt;/b&gt;" style="text;html=1;align=center;verticalAlign=middle;whiteSpace=wrap;rounded=0;" parent="zEsn_sN7hDqRxplZQd_U-1" vertex="1">
          <mxGeometry x="85" y="584" width="60" height="30" as="geometry" />
        </mxCell>
        <mxCell id="zEsn_sN7hDqRxplZQd_U-66" value="&lt;b&gt;1&lt;/b&gt;" style="text;html=1;align=center;verticalAlign=middle;whiteSpace=wrap;rounded=0;" parent="zEsn_sN7hDqRxplZQd_U-1" vertex="1">
          <mxGeometry x="273" y="631" width="60" height="30" as="geometry" />
        </mxCell>
        <mxCell id="zEsn_sN7hDqRxplZQd_U-67" value="&lt;b&gt;N&lt;/b&gt;" style="text;html=1;align=center;verticalAlign=middle;whiteSpace=wrap;rounded=0;" parent="zEsn_sN7hDqRxplZQd_U-1" vertex="1">
          <mxGeometry x="584" y="583" width="60" height="30" as="geometry" />
        </mxCell>
        <mxCell id="zEsn_sN7hDqRxplZQd_U-68" value="&lt;b&gt;M&lt;/b&gt;" style="text;html=1;align=center;verticalAlign=middle;whiteSpace=wrap;rounded=0;" parent="zEsn_sN7hDqRxplZQd_U-1" vertex="1">
          <mxGeometry x="584" y="709" width="60" height="30" as="geometry" />
        </mxCell>
        <mxCell id="zEsn_sN7hDqRxplZQd_U-69" value="&lt;b&gt;M&lt;/b&gt;" style="text;html=1;align=center;verticalAlign=middle;whiteSpace=wrap;rounded=0;" parent="zEsn_sN7hDqRxplZQd_U-1" vertex="1">
          <mxGeometry x="794" y="703" width="60" height="30" as="geometry" />
        </mxCell>
        <mxCell id="zEsn_sN7hDqRxplZQd_U-70" value="&lt;b&gt;N&lt;/b&gt;" style="text;html=1;align=center;verticalAlign=middle;whiteSpace=wrap;rounded=0;" parent="zEsn_sN7hDqRxplZQd_U-1" vertex="1">
          <mxGeometry x="794" y="580" width="60" height="30" as="geometry" />
        </mxCell>
        <mxCell id="zEsn_sN7hDqRxplZQd_U-71" value="&lt;b&gt;M&lt;/b&gt;" style="text;html=1;align=center;verticalAlign=middle;whiteSpace=wrap;rounded=0;" parent="zEsn_sN7hDqRxplZQd_U-1" vertex="1">
          <mxGeometry x="432" y="324" width="60" height="30" as="geometry" />
        </mxCell>
        <mxCell id="zEsn_sN7hDqRxplZQd_U-72" value="&lt;b&gt;M&lt;/b&gt;" style="text;html=1;align=center;verticalAlign=middle;whiteSpace=wrap;rounded=0;" parent="zEsn_sN7hDqRxplZQd_U-1" vertex="1">
          <mxGeometry x="954" y="432" width="60" height="30" as="geometry" />
        </mxCell>
        <mxCell id="zEsn_sN7hDqRxplZQd_U-73" value="&lt;b&gt;1&lt;/b&gt;" style="text;html=1;align=center;verticalAlign=middle;whiteSpace=wrap;rounded=0;" parent="zEsn_sN7hDqRxplZQd_U-1" vertex="1">
          <mxGeometry x="930" y="90" width="60" height="30" as="geometry" />
        </mxCell>
        <mxCell id="zEsn_sN7hDqRxplZQd_U-74" value="" style="rounded=1;whiteSpace=wrap;html=1;opacity=50;fillColor=none;arcSize=4;strokeWidth=3;dashed=1;strokeColor=#9673a6;" parent="zEsn_sN7hDqRxplZQd_U-1" vertex="1">
          <mxGeometry x="69" y="550" width="1061" height="470" as="geometry" />
        </mxCell>
        <mxCell id="zEsn_sN7hDqRxplZQd_U-75" value="&lt;b&gt;&lt;font style=&quot;font-size: 16px;&quot;&gt;Neo4j&lt;/font&gt;&lt;/b&gt;" style="text;html=1;align=center;verticalAlign=middle;whiteSpace=wrap;rounded=0;" parent="zEsn_sN7hDqRxplZQd_U-1" vertex="1">
          <mxGeometry x="77" y="980" width="95" height="30" as="geometry" />
        </mxCell>
        <mxCell id="zEsn_sN7hDqRxplZQd_U-76" value="" style="rounded=1;whiteSpace=wrap;html=1;opacity=50;fillColor=none;arcSize=4;strokeWidth=3;dashed=1;strokeColor=#82b366;" parent="zEsn_sN7hDqRxplZQd_U-1" vertex="1">
          <mxGeometry x="69" y="253" width="1061" height="265" as="geometry" />
        </mxCell>
        <mxCell id="zEsn_sN7hDqRxplZQd_U-77" value="" style="rounded=1;whiteSpace=wrap;html=1;opacity=50;fillColor=none;arcSize=4;strokeWidth=3;dashed=1;strokeColor=#6c8ebf;" parent="zEsn_sN7hDqRxplZQd_U-1" vertex="1">
          <mxGeometry x="69" y="51" width="1061" height="176" as="geometry" />
        </mxCell>
        <mxCell id="zEsn_sN7hDqRxplZQd_U-78" value="&lt;b&gt;&lt;font style=&quot;font-size: 16px;&quot;&gt;MongoDB&lt;/font&gt;&lt;/b&gt;" style="text;html=1;align=center;verticalAlign=middle;whiteSpace=wrap;rounded=0;" parent="zEsn_sN7hDqRxplZQd_U-1" vertex="1">
          <mxGeometry x="105" y="480" width="160" height="30" as="geometry" />
        </mxCell>
        <mxCell id="zEsn_sN7hDqRxplZQd_U-79" value="&lt;b&gt;1&lt;/b&gt;" style="text;html=1;align=center;verticalAlign=middle;whiteSpace=wrap;rounded=0;" parent="zEsn_sN7hDqRxplZQd_U-1" vertex="1">
          <mxGeometry x="151" y="66" width="60" height="30" as="geometry" />
        </mxCell>
        <mxCell id="zEsn_sN7hDqRxplZQd_U-80" value="&lt;b&gt;1&lt;/b&gt;" style="text;html=1;align=center;verticalAlign=middle;whiteSpace=wrap;rounded=0;" parent="zEsn_sN7hDqRxplZQd_U-1" vertex="1">
          <mxGeometry x="672" y="256" width="60" height="30" as="geometry" />
        </mxCell>
        <mxCell id="zEsn_sN7hDqRxplZQd_U-81" value="&lt;b&gt;M&lt;/b&gt;" style="text;html=1;align=center;verticalAlign=middle;whiteSpace=wrap;rounded=0;" parent="zEsn_sN7hDqRxplZQd_U-1" vertex="1">
          <mxGeometry x="725" y="256" width="60" height="30" as="geometry" />
        </mxCell>
        <mxCell id="zEsn_sN7hDqRxplZQd_U-82" value="" style="endArrow=none;endFill=0;endSize=12;html=1;rounded=0;exitX=0;exitY=0.5;exitDx=0;exitDy=0;strokeWidth=2;" parent="zEsn_sN7hDqRxplZQd_U-1" source="zEsn_sN7hDqRxplZQd_U-31" edge="1">
          <mxGeometry width="160" relative="1" as="geometry">
            <mxPoint x="504" y="128" as="sourcePoint" />
            <mxPoint x="424" y="367" as="targetPoint" />
            <Array as="points">
              <mxPoint x="424" y="134" />
            </Array>
          </mxGeometry>
        </mxCell>
        <mxCell id="zEsn_sN7hDqRxplZQd_U-83" value="&lt;b&gt;M&lt;/b&gt;" style="text;html=1;align=center;verticalAlign=middle;whiteSpace=wrap;rounded=0;" parent="zEsn_sN7hDqRxplZQd_U-1" vertex="1">
          <mxGeometry x="435" y="107" width="60" height="30" as="geometry" />
        </mxCell>
        <mxCell id="zEsn_sN7hDqRxplZQd_U-84" value="vendor" style="swimlane;fontStyle=0;childLayout=stackLayout;horizontal=1;startSize=26;fillColor=#d5e8d4;horizontalStack=0;resizeParent=1;resizeParentMax=0;resizeLast=0;collapsible=1;marginBottom=0;whiteSpace=wrap;html=1;strokeWidth=2;strokeColor=#82b366;dashed=1;dashPattern=1 2;" parent="zEsn_sN7hDqRxplZQd_U-1" vertex="1">
          <mxGeometry x="784" y="422" width="170" height="78" as="geometry" />
        </mxCell>
        <mxCell id="zEsn_sN7hDqRxplZQd_U-85" value="brand_id: int32&amp;nbsp; &amp;lt;fk&amp;gt;" style="text;strokeColor=none;fillColor=none;align=left;verticalAlign=top;spacingLeft=4;spacingRight=4;overflow=hidden;rotatable=0;points=[[0,0.5],[1,0.5]];portConstraint=eastwest;whiteSpace=wrap;html=1;strokeWidth=2;" parent="zEsn_sN7hDqRxplZQd_U-84" vertex="1">
          <mxGeometry y="26" width="170" height="26" as="geometry" />
        </mxCell>
        <mxCell id="zEsn_sN7hDqRxplZQd_U-86" value="&lt;div&gt;brand: string&lt;/div&gt;" style="text;strokeColor=none;fillColor=none;align=left;verticalAlign=top;spacingLeft=4;spacingRight=4;overflow=hidden;rotatable=0;points=[[0,0.5],[1,0.5]];portConstraint=eastwest;whiteSpace=wrap;html=1;" parent="zEsn_sN7hDqRxplZQd_U-84" vertex="1">
          <mxGeometry y="52" width="170" height="26" as="geometry" />
        </mxCell>
        <mxCell id="zEsn_sN7hDqRxplZQd_U-87" value="" style="endArrow=diamondThin;endFill=1;endSize=24;html=1;rounded=0;strokeWidth=2;entryX=0.018;entryY=0.038;entryDx=0;entryDy=0;entryPerimeter=0;exitX=0;exitY=0.25;exitDx=0;exitDy=0;" parent="zEsn_sN7hDqRxplZQd_U-1" source="zEsn_sN7hDqRxplZQd_U-84" target="zEsn_sN7hDqRxplZQd_U-24" edge="1">
          <mxGeometry width="160" relative="1" as="geometry">
            <mxPoint x="751" y="479" as="sourcePoint" />
            <mxPoint x="629" y="479" as="targetPoint" />
            <Array as="points">
              <mxPoint x="734" y="441" />
              <mxPoint x="734" y="301" />
            </Array>
          </mxGeometry>
        </mxCell>
        <mxCell id="zEsn_sN7hDqRxplZQd_U-88" value="&lt;b&gt;1&lt;/b&gt;" style="text;html=1;align=center;verticalAlign=middle;whiteSpace=wrap;rounded=0;" parent="zEsn_sN7hDqRxplZQd_U-1" vertex="1">
          <mxGeometry x="725" y="304" width="60" height="30" as="geometry" />
        </mxCell>
        <mxCell id="zEsn_sN7hDqRxplZQd_U-89" value="&lt;b&gt;1&lt;/b&gt;" style="text;html=1;align=center;verticalAlign=middle;whiteSpace=wrap;rounded=0;" parent="zEsn_sN7hDqRxplZQd_U-1" vertex="1">
          <mxGeometry x="725" y="408" width="60" height="30" as="geometry" />
        </mxCell>
        <mxCell id="zEsn_sN7hDqRxplZQd_U-90" value="&lt;div&gt;Feedback&lt;/div&gt;" style="swimlane;fontStyle=0;childLayout=stackLayout;horizontal=1;startSize=24;fillColor=#e1d5e7;horizontalStack=0;resizeParent=1;resizeParentMax=0;resizeLast=0;collapsible=1;marginBottom=0;whiteSpace=wrap;html=1;strokeWidth=2;strokeColor=#9673a6;" parent="zEsn_sN7hDqRxplZQd_U-1" vertex="1">
          <mxGeometry x="895" y="796" width="160" height="206" as="geometry" />
        </mxCell>
        <mxCell id="zEsn_sN7hDqRxplZQd_U-91" value="elementId: string&amp;nbsp; &amp;lt;pk&amp;gt;" style="text;strokeColor=none;fillColor=none;align=left;verticalAlign=top;spacingLeft=4;spacingRight=4;overflow=hidden;rotatable=0;points=[[0,0.5],[1,0.5]];portConstraint=eastwest;whiteSpace=wrap;html=1;strokeWidth=2;" parent="zEsn_sN7hDqRxplZQd_U-90" vertex="1">
          <mxGeometry y="24" width="160" height="26" as="geometry" />
        </mxCell>
        <mxCell id="zEsn_sN7hDqRxplZQd_U-92" value="feedback_id: integer" style="text;strokeColor=none;fillColor=none;align=left;verticalAlign=top;spacingLeft=4;spacingRight=4;overflow=hidden;rotatable=0;points=[[0,0.5],[1,0.5]];portConstraint=eastwest;whiteSpace=wrap;html=1;strokeWidth=2;" parent="zEsn_sN7hDqRxplZQd_U-90" vertex="1">
          <mxGeometry y="50" width="160" height="26" as="geometry" />
        </mxCell>
        <mxCell id="zEsn_sN7hDqRxplZQd_U-93" value="&lt;div&gt;product_id: integer&amp;nbsp;&lt;/div&gt;" style="text;strokeColor=none;fillColor=none;align=left;verticalAlign=top;spacingLeft=4;spacingRight=4;overflow=hidden;rotatable=0;points=[[0,0.5],[1,0.5]];portConstraint=eastwest;whiteSpace=wrap;html=1;" parent="zEsn_sN7hDqRxplZQd_U-90" vertex="1">
          <mxGeometry y="76" width="160" height="26" as="geometry" />
        </mxCell>
        <mxCell id="zEsn_sN7hDqRxplZQd_U-94" value="asin: string" style="text;strokeColor=none;fillColor=none;align=left;verticalAlign=top;spacingLeft=4;spacingRight=4;overflow=hidden;rotatable=0;points=[[0,0.5],[1,0.5]];portConstraint=eastwest;whiteSpace=wrap;html=1;" parent="zEsn_sN7hDqRxplZQd_U-90" vertex="1">
          <mxGeometry y="102" width="160" height="26" as="geometry" />
        </mxCell>
        <mxCell id="zEsn_sN7hDqRxplZQd_U-95" value="brand_id: integer&amp;nbsp; &amp;lt;fk&amp;gt;" style="text;strokeColor=none;fillColor=none;align=left;verticalAlign=top;spacingLeft=4;spacingRight=4;overflow=hidden;rotatable=0;points=[[0,0.5],[1,0.5]];portConstraint=eastwest;whiteSpace=wrap;html=1;" parent="zEsn_sN7hDqRxplZQd_U-90" vertex="1">
          <mxGeometry y="128" width="160" height="26" as="geometry" />
        </mxCell>
        <mxCell id="zEsn_sN7hDqRxplZQd_U-96" value="&lt;div&gt;brand: string&lt;/div&gt;" style="text;strokeColor=none;fillColor=none;align=left;verticalAlign=top;spacingLeft=4;spacingRight=4;overflow=hidden;rotatable=0;points=[[0,0.5],[1,0.5]];portConstraint=eastwest;whiteSpace=wrap;html=1;" parent="zEsn_sN7hDqRxplZQd_U-90" vertex="1">
          <mxGeometry y="154" width="160" height="26" as="geometry" />
        </mxCell>
        <mxCell id="zEsn_sN7hDqRxplZQd_U-97" value="feedback: string" style="text;strokeColor=none;fillColor=none;align=left;verticalAlign=top;spacingLeft=4;spacingRight=4;overflow=hidden;rotatable=0;points=[[0,0.5],[1,0.5]];portConstraint=eastwest;whiteSpace=wrap;html=1;" parent="zEsn_sN7hDqRxplZQd_U-90" vertex="1">
          <mxGeometry y="180" width="160" height="26" as="geometry" />
        </mxCell>
        <mxCell id="zEsn_sN7hDqRxplZQd_U-98" value="&lt;div&gt;HAS_CREATED&lt;/div&gt;" style="swimlane;fontStyle=0;childLayout=stackLayout;horizontal=1;startSize=27;fillColor=#e1d5e7;horizontalStack=0;resizeParent=1;resizeParentMax=0;resizeLast=0;collapsible=1;marginBottom=0;whiteSpace=wrap;html=1;strokeWidth=2;strokeColor=#9673a6;" parent="zEsn_sN7hDqRxplZQd_U-1" vertex="1">
          <mxGeometry x="325" y="820" width="190" height="105" as="geometry" />
        </mxCell>
        <mxCell id="zEsn_sN7hDqRxplZQd_U-99" value="elementId: string&amp;nbsp; &amp;lt;pk&amp;gt;" style="text;strokeColor=none;fillColor=none;align=left;verticalAlign=top;spacingLeft=4;spacingRight=4;overflow=hidden;rotatable=0;points=[[0,0.5],[1,0.5]];portConstraint=eastwest;whiteSpace=wrap;html=1;strokeWidth=2;" parent="zEsn_sN7hDqRxplZQd_U-98" vertex="1">
          <mxGeometry y="27" width="190" height="26" as="geometry" />
        </mxCell>
        <mxCell id="zEsn_sN7hDqRxplZQd_U-100" value="&lt;div&gt;&lt;div&gt;endNodeElementId: string&amp;nbsp;&amp;nbsp;&amp;lt;fk&amp;gt;&lt;/div&gt;&lt;/div&gt;" style="text;strokeColor=none;fillColor=none;align=left;verticalAlign=top;spacingLeft=4;spacingRight=4;overflow=hidden;rotatable=0;points=[[0,0.5],[1,0.5]];portConstraint=eastwest;whiteSpace=wrap;html=1;" parent="zEsn_sN7hDqRxplZQd_U-98" vertex="1">
          <mxGeometry y="53" width="190" height="26" as="geometry" />
        </mxCell>
        <mxCell id="zEsn_sN7hDqRxplZQd_U-101" value="&lt;div&gt;&lt;div&gt;startNodeElementId: string&amp;nbsp;&amp;nbsp;&amp;lt;fk&amp;gt;&lt;/div&gt;&lt;/div&gt;" style="text;strokeColor=none;fillColor=none;align=left;verticalAlign=top;spacingLeft=4;spacingRight=4;overflow=hidden;rotatable=0;points=[[0,0.5],[1,0.5]];portConstraint=eastwest;whiteSpace=wrap;html=1;" parent="zEsn_sN7hDqRxplZQd_U-98" vertex="1">
          <mxGeometry y="79" width="190" height="26" as="geometry" />
        </mxCell>
        <mxCell id="zEsn_sN7hDqRxplZQd_U-102" value="" style="endArrow=none;html=1;rounded=0;strokeWidth=2;entryX=0;entryY=0.5;entryDx=0;entryDy=0;exitX=0.9;exitY=0.008;exitDx=0;exitDy=0;exitPerimeter=0;" parent="zEsn_sN7hDqRxplZQd_U-1" source="zEsn_sN7hDqRxplZQd_U-2" edge="1">
          <mxGeometry width="50" height="50" relative="1" as="geometry">
            <mxPoint x="185" y="779" as="sourcePoint" />
            <mxPoint x="325" y="854" as="targetPoint" />
            <Array as="points">
              <mxPoint x="224" y="630" />
              <mxPoint x="257" y="630" />
              <mxPoint x="257" y="854" />
            </Array>
          </mxGeometry>
        </mxCell>
        <mxCell id="zEsn_sN7hDqRxplZQd_U-103" value="&lt;b&gt;1&lt;/b&gt;" style="text;html=1;align=center;verticalAlign=middle;whiteSpace=wrap;rounded=0;" parent="zEsn_sN7hDqRxplZQd_U-1" vertex="1">
          <mxGeometry x="236" y="631" width="60" height="30" as="geometry" />
        </mxCell>
        <mxCell id="zEsn_sN7hDqRxplZQd_U-104" value="" style="endArrow=open;html=1;rounded=0;entryX=-0.012;entryY=0.091;entryDx=0;entryDy=0;entryPerimeter=0;strokeWidth=2;endFill=0;endSize=12;exitX=1;exitY=0.5;exitDx=0;exitDy=0;" parent="zEsn_sN7hDqRxplZQd_U-1" target="zEsn_sN7hDqRxplZQd_U-90" edge="1">
          <mxGeometry width="50" height="50" relative="1" as="geometry">
            <mxPoint x="515" y="854" as="sourcePoint" />
            <mxPoint x="664" y="747" as="targetPoint" />
            <Array as="points">
              <mxPoint x="824" y="854" />
              <mxPoint x="824" y="815" />
            </Array>
          </mxGeometry>
        </mxCell>
        <mxCell id="zEsn_sN7hDqRxplZQd_U-105" value="&lt;b&gt;M&lt;/b&gt;" style="text;html=1;align=center;verticalAlign=middle;whiteSpace=wrap;rounded=0;" parent="zEsn_sN7hDqRxplZQd_U-1" vertex="1">
          <mxGeometry x="824" y="784" width="60" height="30" as="geometry" />
        </mxCell>
        <mxCell id="zEsn_sN7hDqRxplZQd_U-106" value="&lt;b&gt;&lt;font style=&quot;font-size: 16px;&quot;&gt;MySQL/ Postgres&lt;/font&gt;&lt;/b&gt;" style="text;html=1;align=center;verticalAlign=middle;whiteSpace=wrap;rounded=0;" parent="zEsn_sN7hDqRxplZQd_U-1" vertex="1">
          <mxGeometry x="77.5" y="185" width="115" height="30" as="geometry" />
        </mxCell>
        <mxCell id="TOSydstoaWZ15TsvN_38-0" value="" style="endArrow=open;endFill=0;endSize=12;html=1;rounded=0;exitX=1;exitY=0.5;exitDx=0;exitDy=0;strokeWidth=2;entryX=1.009;entryY=0.138;entryDx=0;entryDy=0;entryPerimeter=0;" edge="1" parent="zEsn_sN7hDqRxplZQd_U-1" source="zEsn_sN7hDqRxplZQd_U-95" target="zEsn_sN7hDqRxplZQd_U-34">
          <mxGeometry width="160" relative="1" as="geometry">
            <mxPoint x="1075" y="935" as="sourcePoint" />
            <mxPoint x="990" y="80" as="targetPoint" />
            <Array as="points">
              <mxPoint x="1100" y="937" />
              <mxPoint x="1100" y="84" />
            </Array>
          </mxGeometry>
        </mxCell>
        <mxCell id="TOSydstoaWZ15TsvN_38-1" value="&lt;b&gt;M&lt;/b&gt;" style="text;html=1;align=center;verticalAlign=middle;whiteSpace=wrap;rounded=0;" vertex="1" parent="zEsn_sN7hDqRxplZQd_U-1">
          <mxGeometry x="1047" y="908" width="60" height="30" as="geometry" />
        </mxCell>
      </root>
    </mxGraphModel>
  </diagram>
</mxfile>
